%TF.GenerationSoftware,KiCad,Pcbnew,9.0.1*%
%TF.CreationDate,2025-05-09T12:09:10-04:00*%
%TF.ProjectId,Meterbus-interface,4d657465-7262-4757-932d-696e74657266,rev?*%
%TF.SameCoordinates,Original*%
%TF.FileFunction,Copper,L2,Bot*%
%TF.FilePolarity,Positive*%
%FSLAX46Y46*%
G04 Gerber Fmt 4.6, Leading zero omitted, Abs format (unit mm)*
G04 Created by KiCad (PCBNEW 9.0.1) date 2025-05-09 12:09:10*
%MOMM*%
%LPD*%
G01*
G04 APERTURE LIST*
%TA.AperFunction,ComponentPad*%
%ADD10R,1.700000X1.700000*%
%TD*%
%TA.AperFunction,ComponentPad*%
%ADD11C,1.700000*%
%TD*%
%TA.AperFunction,ComponentPad*%
%ADD12C,4.000000*%
%TD*%
%TA.AperFunction,ComponentPad*%
%ADD13R,1.600000X1.600000*%
%TD*%
%TA.AperFunction,ComponentPad*%
%ADD14C,1.600000*%
%TD*%
G04 APERTURE END LIST*
D10*
%TO.P,J5,1,Pin_1*%
%TO.N,/GND*%
X189300000Y-63100000D03*
D11*
%TO.P,J5,2,Pin_2*%
%TO.N,unconnected-(J5-Pin_2-Pad2)*%
X189300000Y-60560000D03*
%TO.P,J5,3,Pin_3*%
%TO.N,Net-(J5-Pin_3)*%
X189300000Y-58020000D03*
%TO.P,J5,4,Pin_4*%
%TO.N,Net-(J5-Pin_4)*%
X189300000Y-55480000D03*
%TO.P,J5,5,Pin_5*%
%TO.N,Net-(J5-Pin_5)*%
X189300000Y-52940000D03*
%TO.P,J5,6,Pin_6*%
%TO.N,unconnected-(J5-Pin_6-Pad6)*%
X189300000Y-50400000D03*
%TD*%
D12*
%TO.P,J4,0*%
%TO.N,N/C*%
X226055000Y-70020000D03*
X226055000Y-45020000D03*
D13*
%TO.P,J4,1,1*%
%TO.N,Net-(J4-Pad1)*%
X224635000Y-51980000D03*
D14*
%TO.P,J4,2,2*%
%TO.N,unconnected-(J4-Pad2)*%
X224635000Y-54750000D03*
%TO.P,J4,3,3*%
%TO.N,unconnected-(J4-Pad3)*%
X224635000Y-57520000D03*
%TO.P,J4,4,4*%
%TO.N,unconnected-(J4-Pad4)*%
X224635000Y-60290000D03*
%TO.P,J4,5,5*%
%TO.N,/GND*%
X224635000Y-63060000D03*
%TO.P,J4,6,6*%
%TO.N,unconnected-(J4-Pad6)*%
X227475000Y-53365000D03*
%TO.P,J4,7,7*%
%TO.N,unconnected-(J4-Pad7)*%
X227475000Y-56135000D03*
%TO.P,J4,8,8*%
%TO.N,unconnected-(J4-Pad8)*%
X227475000Y-58905000D03*
%TO.P,J4,9,9*%
%TO.N,unconnected-(J4-Pad9)*%
X227475000Y-61675000D03*
%TD*%
%TA.AperFunction,Conductor*%
%TO.N,/GND*%
G36*
X234442539Y-41520185D02*
G01*
X234488294Y-41572989D01*
X234499500Y-41624500D01*
X234499500Y-73375500D01*
X234479815Y-73442539D01*
X234427011Y-73488294D01*
X234375500Y-73499500D01*
X178624500Y-73499500D01*
X178557461Y-73479815D01*
X178511706Y-73427011D01*
X178500500Y-73375500D01*
X178500500Y-69879568D01*
X223554500Y-69879568D01*
X223554500Y-70160431D01*
X223585942Y-70439494D01*
X223585945Y-70439512D01*
X223648439Y-70713317D01*
X223648443Y-70713329D01*
X223741200Y-70978411D01*
X223863053Y-71231442D01*
X223863055Y-71231445D01*
X224012477Y-71469248D01*
X224187584Y-71688825D01*
X224386175Y-71887416D01*
X224605752Y-72062523D01*
X224843555Y-72211945D01*
X225096592Y-72333801D01*
X225295680Y-72403465D01*
X225361670Y-72426556D01*
X225361682Y-72426560D01*
X225635491Y-72489055D01*
X225635497Y-72489055D01*
X225635505Y-72489057D01*
X225821547Y-72510018D01*
X225914569Y-72520499D01*
X225914572Y-72520500D01*
X225914575Y-72520500D01*
X226195428Y-72520500D01*
X226195429Y-72520499D01*
X226338055Y-72504429D01*
X226474494Y-72489057D01*
X226474499Y-72489056D01*
X226474509Y-72489055D01*
X226748318Y-72426560D01*
X227013408Y-72333801D01*
X227266445Y-72211945D01*
X227504248Y-72062523D01*
X227723825Y-71887416D01*
X227922416Y-71688825D01*
X228097523Y-71469248D01*
X228246945Y-71231445D01*
X228368801Y-70978408D01*
X228461560Y-70713318D01*
X228524055Y-70439509D01*
X228555500Y-70160425D01*
X228555500Y-69879575D01*
X228524055Y-69600491D01*
X228461560Y-69326682D01*
X228368801Y-69061592D01*
X228246945Y-68808555D01*
X228097523Y-68570752D01*
X227922416Y-68351175D01*
X227723825Y-68152584D01*
X227504248Y-67977477D01*
X227266445Y-67828055D01*
X227266442Y-67828053D01*
X227013411Y-67706200D01*
X226748329Y-67613443D01*
X226748317Y-67613439D01*
X226474512Y-67550945D01*
X226474494Y-67550942D01*
X226195431Y-67519500D01*
X226195425Y-67519500D01*
X225914575Y-67519500D01*
X225914568Y-67519500D01*
X225635505Y-67550942D01*
X225635487Y-67550945D01*
X225361682Y-67613439D01*
X225361670Y-67613443D01*
X225096588Y-67706200D01*
X224843557Y-67828053D01*
X224605753Y-67977476D01*
X224386175Y-68152583D01*
X224187583Y-68351175D01*
X224012476Y-68570753D01*
X223863053Y-68808557D01*
X223741200Y-69061588D01*
X223648443Y-69326670D01*
X223648439Y-69326682D01*
X223585945Y-69600487D01*
X223585942Y-69600505D01*
X223554500Y-69879568D01*
X178500500Y-69879568D01*
X178500500Y-50293713D01*
X187949500Y-50293713D01*
X187949500Y-50506286D01*
X187977949Y-50685909D01*
X187982754Y-50716243D01*
X188017264Y-50822454D01*
X188048444Y-50918414D01*
X188144951Y-51107820D01*
X188269890Y-51279786D01*
X188420213Y-51430109D01*
X188592182Y-51555050D01*
X188600946Y-51559516D01*
X188651742Y-51607491D01*
X188668536Y-51675312D01*
X188645998Y-51741447D01*
X188600946Y-51780484D01*
X188592182Y-51784949D01*
X188420213Y-51909890D01*
X188269890Y-52060213D01*
X188144951Y-52232179D01*
X188048444Y-52421585D01*
X187982753Y-52623760D01*
X187949500Y-52833713D01*
X187949500Y-53046286D01*
X187977614Y-53223795D01*
X187982754Y-53256243D01*
X188045547Y-53449500D01*
X188048444Y-53458414D01*
X188144951Y-53647820D01*
X188269890Y-53819786D01*
X188420213Y-53970109D01*
X188592182Y-54095050D01*
X188600946Y-54099516D01*
X188651742Y-54147491D01*
X188668536Y-54215312D01*
X188645998Y-54281447D01*
X188600946Y-54320484D01*
X188592182Y-54324949D01*
X188420213Y-54449890D01*
X188269890Y-54600213D01*
X188144951Y-54772179D01*
X188048444Y-54961585D01*
X187982753Y-55163760D01*
X187949500Y-55373713D01*
X187949500Y-55586287D01*
X187982754Y-55796243D01*
X188034408Y-55955218D01*
X188048444Y-55998414D01*
X188144951Y-56187820D01*
X188269890Y-56359786D01*
X188420213Y-56510109D01*
X188592182Y-56635050D01*
X188600946Y-56639516D01*
X188651742Y-56687491D01*
X188668536Y-56755312D01*
X188645998Y-56821447D01*
X188600946Y-56860484D01*
X188592182Y-56864949D01*
X188420213Y-56989890D01*
X188269890Y-57140213D01*
X188144951Y-57312179D01*
X188048444Y-57501585D01*
X187982753Y-57703760D01*
X187949608Y-57913028D01*
X187949500Y-57913713D01*
X187949500Y-58126287D01*
X187982754Y-58336243D01*
X188005348Y-58405781D01*
X188048444Y-58538414D01*
X188144951Y-58727820D01*
X188269890Y-58899786D01*
X188420213Y-59050109D01*
X188592182Y-59175050D01*
X188600946Y-59179516D01*
X188651742Y-59227491D01*
X188668536Y-59295312D01*
X188645998Y-59361447D01*
X188600946Y-59400484D01*
X188592182Y-59404949D01*
X188420213Y-59529890D01*
X188269890Y-59680213D01*
X188144951Y-59852179D01*
X188048444Y-60041585D01*
X187982753Y-60243760D01*
X187962046Y-60374500D01*
X187949500Y-60453713D01*
X187949500Y-60666287D01*
X187982754Y-60876243D01*
X188020816Y-60993386D01*
X188048444Y-61078414D01*
X188144951Y-61267820D01*
X188269890Y-61439786D01*
X188383818Y-61553714D01*
X188417303Y-61615037D01*
X188412319Y-61684729D01*
X188370447Y-61740662D01*
X188339471Y-61757577D01*
X188207912Y-61806646D01*
X188207906Y-61806649D01*
X188092812Y-61892809D01*
X188092809Y-61892812D01*
X188006649Y-62007906D01*
X188006645Y-62007913D01*
X187956403Y-62142620D01*
X187956401Y-62142627D01*
X187950000Y-62202155D01*
X187950000Y-62850000D01*
X188866988Y-62850000D01*
X188834075Y-62907007D01*
X188800000Y-63034174D01*
X188800000Y-63165826D01*
X188834075Y-63292993D01*
X188866988Y-63350000D01*
X187950000Y-63350000D01*
X187950000Y-63997844D01*
X187956401Y-64057372D01*
X187956403Y-64057379D01*
X188006645Y-64192086D01*
X188006649Y-64192093D01*
X188092809Y-64307187D01*
X188092812Y-64307190D01*
X188207906Y-64393350D01*
X188207913Y-64393354D01*
X188342620Y-64443596D01*
X188342627Y-64443598D01*
X188402155Y-64449999D01*
X188402172Y-64450000D01*
X189050000Y-64450000D01*
X189050000Y-63533012D01*
X189107007Y-63565925D01*
X189234174Y-63600000D01*
X189365826Y-63600000D01*
X189492993Y-63565925D01*
X189550000Y-63533012D01*
X189550000Y-64450000D01*
X190197828Y-64450000D01*
X190197844Y-64449999D01*
X190257372Y-64443598D01*
X190257379Y-64443596D01*
X190392086Y-64393354D01*
X190392093Y-64393350D01*
X190507187Y-64307190D01*
X190507190Y-64307187D01*
X190593350Y-64192093D01*
X190593354Y-64192086D01*
X190643598Y-64057376D01*
X190649999Y-63997844D01*
X190650000Y-63997827D01*
X190650000Y-63350000D01*
X189733012Y-63350000D01*
X189765925Y-63292993D01*
X189800000Y-63165826D01*
X189800000Y-63034174D01*
X189765925Y-62907007D01*
X189733012Y-62850000D01*
X190650000Y-62850000D01*
X190650000Y-62202172D01*
X190649999Y-62202155D01*
X190643598Y-62142627D01*
X190643596Y-62142620D01*
X190593354Y-62007913D01*
X190593350Y-62007906D01*
X190507190Y-61892812D01*
X190507187Y-61892809D01*
X190392093Y-61806649D01*
X190392088Y-61806646D01*
X190260528Y-61757577D01*
X190204595Y-61715705D01*
X190180178Y-61650241D01*
X190195030Y-61581968D01*
X190216175Y-61553720D01*
X190330104Y-61439792D01*
X190455051Y-61267816D01*
X190551557Y-61078412D01*
X190617246Y-60876243D01*
X190650500Y-60666287D01*
X190650500Y-60453713D01*
X190617246Y-60243757D01*
X190551557Y-60041588D01*
X190455051Y-59852184D01*
X190455049Y-59852181D01*
X190455048Y-59852179D01*
X190330109Y-59680213D01*
X190179786Y-59529890D01*
X190007820Y-59404951D01*
X190006383Y-59404219D01*
X189999054Y-59400485D01*
X189948259Y-59352512D01*
X189931463Y-59284692D01*
X189953999Y-59218556D01*
X189999054Y-59179515D01*
X190007816Y-59175051D01*
X190132063Y-59084781D01*
X190179786Y-59050109D01*
X190179788Y-59050106D01*
X190179792Y-59050104D01*
X190330104Y-58899792D01*
X190330106Y-58899788D01*
X190330109Y-58899786D01*
X190455048Y-58727820D01*
X190455047Y-58727820D01*
X190455051Y-58727816D01*
X190551557Y-58538412D01*
X190617246Y-58336243D01*
X190650500Y-58126287D01*
X190650500Y-57913713D01*
X190617246Y-57703757D01*
X190551557Y-57501588D01*
X190455051Y-57312184D01*
X190455049Y-57312181D01*
X190455048Y-57312179D01*
X190330109Y-57140213D01*
X190179786Y-56989890D01*
X190007820Y-56864951D01*
X190007115Y-56864591D01*
X189999054Y-56860485D01*
X189948259Y-56812512D01*
X189931463Y-56744692D01*
X189953999Y-56678556D01*
X189999054Y-56639515D01*
X190007816Y-56635051D01*
X190029789Y-56619086D01*
X190179786Y-56510109D01*
X190179788Y-56510106D01*
X190179792Y-56510104D01*
X190330104Y-56359792D01*
X190330106Y-56359788D01*
X190330109Y-56359786D01*
X190455048Y-56187820D01*
X190455047Y-56187820D01*
X190455051Y-56187816D01*
X190551557Y-55998412D01*
X190617246Y-55796243D01*
X190650500Y-55586287D01*
X190650500Y-55373713D01*
X190617246Y-55163757D01*
X190551557Y-54961588D01*
X190455051Y-54772184D01*
X190455049Y-54772181D01*
X190455048Y-54772179D01*
X190330109Y-54600213D01*
X190179786Y-54449890D01*
X190007820Y-54324951D01*
X190007115Y-54324591D01*
X189999054Y-54320485D01*
X189948259Y-54272512D01*
X189931463Y-54204692D01*
X189953999Y-54138556D01*
X189999054Y-54099515D01*
X190007816Y-54095051D01*
X190044512Y-54068390D01*
X190179786Y-53970109D01*
X190179788Y-53970106D01*
X190179792Y-53970104D01*
X190330104Y-53819792D01*
X190330106Y-53819788D01*
X190330109Y-53819786D01*
X190455048Y-53647820D01*
X190455047Y-53647820D01*
X190455051Y-53647816D01*
X190551557Y-53458412D01*
X190617246Y-53256243D01*
X190650500Y-53046287D01*
X190650500Y-52833713D01*
X190617246Y-52623757D01*
X190551557Y-52421588D01*
X190455051Y-52232184D01*
X190455049Y-52232181D01*
X190455048Y-52232179D01*
X190330109Y-52060213D01*
X190179786Y-51909890D01*
X190007820Y-51784951D01*
X190007115Y-51784591D01*
X189999054Y-51780485D01*
X189948259Y-51732512D01*
X189931463Y-51664692D01*
X189953999Y-51598556D01*
X189999054Y-51559515D01*
X190007816Y-51555051D01*
X190029789Y-51539086D01*
X190179786Y-51430109D01*
X190179788Y-51430106D01*
X190179792Y-51430104D01*
X190330104Y-51279792D01*
X190330106Y-51279788D01*
X190330109Y-51279786D01*
X190437382Y-51132135D01*
X223334500Y-51132135D01*
X223334500Y-52827870D01*
X223334501Y-52827876D01*
X223340908Y-52887483D01*
X223391202Y-53022328D01*
X223391206Y-53022335D01*
X223477452Y-53137544D01*
X223477455Y-53137547D01*
X223592664Y-53223793D01*
X223592671Y-53223797D01*
X223727517Y-53274091D01*
X223727516Y-53274091D01*
X223734444Y-53274835D01*
X223787127Y-53280500D01*
X224166248Y-53280499D01*
X224233285Y-53300183D01*
X224279040Y-53352987D01*
X224288984Y-53422146D01*
X224259959Y-53485701D01*
X224204566Y-53522429D01*
X224135780Y-53544779D01*
X223953386Y-53637715D01*
X223787786Y-53758028D01*
X223643028Y-53902786D01*
X223522715Y-54068386D01*
X223429781Y-54250776D01*
X223366522Y-54445465D01*
X223334500Y-54647648D01*
X223334500Y-54852351D01*
X223366522Y-55054534D01*
X223429781Y-55249223D01*
X223522715Y-55431613D01*
X223643028Y-55597213D01*
X223787786Y-55741971D01*
X223942749Y-55854556D01*
X223953390Y-55862287D01*
X224069607Y-55921503D01*
X224135776Y-55955218D01*
X224135778Y-55955218D01*
X224135781Y-55955220D01*
X224214956Y-55980945D01*
X224326131Y-56017069D01*
X224383806Y-56056507D01*
X224411004Y-56120866D01*
X224399089Y-56189712D01*
X224351845Y-56241188D01*
X224326131Y-56252931D01*
X224135776Y-56314781D01*
X223953386Y-56407715D01*
X223787786Y-56528028D01*
X223643028Y-56672786D01*
X223522715Y-56838386D01*
X223429781Y-57020776D01*
X223366522Y-57215465D01*
X223334500Y-57417648D01*
X223334500Y-57622351D01*
X223366522Y-57824534D01*
X223429781Y-58019223D01*
X223522715Y-58201613D01*
X223643028Y-58367213D01*
X223787786Y-58511971D01*
X223942749Y-58624556D01*
X223953390Y-58632287D01*
X224069607Y-58691503D01*
X224135776Y-58725218D01*
X224135778Y-58725218D01*
X224135781Y-58725220D01*
X224214956Y-58750945D01*
X224326131Y-58787069D01*
X224383806Y-58826507D01*
X224411004Y-58890866D01*
X224399089Y-58959712D01*
X224351845Y-59011188D01*
X224326131Y-59022931D01*
X224135776Y-59084781D01*
X223953386Y-59177715D01*
X223787786Y-59298028D01*
X223643028Y-59442786D01*
X223522715Y-59608386D01*
X223429781Y-59790776D01*
X223366522Y-59985465D01*
X223334500Y-60187648D01*
X223334500Y-60392351D01*
X223366522Y-60594534D01*
X223429781Y-60789223D01*
X223522715Y-60971613D01*
X223643028Y-61137213D01*
X223787786Y-61281971D01*
X223942749Y-61394556D01*
X223953390Y-61402287D01*
X224135781Y-61495220D01*
X224281807Y-61542666D01*
X224326938Y-61557331D01*
X224384614Y-61596769D01*
X224411812Y-61661127D01*
X224399897Y-61729974D01*
X224352653Y-61781449D01*
X224326939Y-61793193D01*
X224135968Y-61855244D01*
X223953644Y-61948143D01*
X223909077Y-61980523D01*
X223909077Y-61980524D01*
X224505591Y-62577037D01*
X224442007Y-62594075D01*
X224327993Y-62659901D01*
X224234901Y-62752993D01*
X224169075Y-62867007D01*
X224152037Y-62930590D01*
X223555524Y-62334077D01*
X223555523Y-62334077D01*
X223523143Y-62378644D01*
X223430244Y-62560968D01*
X223367009Y-62755582D01*
X223335000Y-62957682D01*
X223335000Y-63162317D01*
X223367009Y-63364417D01*
X223430244Y-63559031D01*
X223523141Y-63741350D01*
X223523147Y-63741359D01*
X223555523Y-63785921D01*
X223555524Y-63785922D01*
X224152037Y-63189409D01*
X224169075Y-63252993D01*
X224234901Y-63367007D01*
X224327993Y-63460099D01*
X224442007Y-63525925D01*
X224505590Y-63542962D01*
X223909076Y-64139474D01*
X223953650Y-64171859D01*
X224135968Y-64264755D01*
X224330582Y-64327990D01*
X224532683Y-64360000D01*
X224737317Y-64360000D01*
X224939417Y-64327990D01*
X225134031Y-64264755D01*
X225316349Y-64171859D01*
X225360921Y-64139474D01*
X224764409Y-63542962D01*
X224827993Y-63525925D01*
X224942007Y-63460099D01*
X225035099Y-63367007D01*
X225100925Y-63252993D01*
X225117962Y-63189409D01*
X225714474Y-63785921D01*
X225746859Y-63741349D01*
X225839755Y-63559031D01*
X225902990Y-63364417D01*
X225935000Y-63162317D01*
X225935000Y-62957682D01*
X225902990Y-62755582D01*
X225839755Y-62560968D01*
X225746859Y-62378650D01*
X225714474Y-62334077D01*
X225714474Y-62334076D01*
X225117962Y-62930589D01*
X225100925Y-62867007D01*
X225035099Y-62752993D01*
X224942007Y-62659901D01*
X224827993Y-62594075D01*
X224764408Y-62577037D01*
X225360922Y-61980524D01*
X225360921Y-61980523D01*
X225316359Y-61948147D01*
X225316350Y-61948141D01*
X225134031Y-61855244D01*
X224943060Y-61793193D01*
X224885385Y-61753755D01*
X224858187Y-61689396D01*
X224870102Y-61620550D01*
X224917347Y-61569074D01*
X224943061Y-61557331D01*
X224954196Y-61553713D01*
X225134219Y-61495220D01*
X225316610Y-61402287D01*
X225409590Y-61334732D01*
X225482213Y-61281971D01*
X225482215Y-61281968D01*
X225482219Y-61281966D01*
X225626966Y-61137219D01*
X225626968Y-61137215D01*
X225626971Y-61137213D01*
X225679732Y-61064590D01*
X225747287Y-60971610D01*
X225840220Y-60789219D01*
X225903477Y-60594534D01*
X225935500Y-60392352D01*
X225935500Y-60187648D01*
X225934892Y-60183812D01*
X225903477Y-59985465D01*
X225840218Y-59790776D01*
X225806503Y-59724607D01*
X225747287Y-59608390D01*
X225731463Y-59586610D01*
X225626971Y-59442786D01*
X225482213Y-59298028D01*
X225316613Y-59177715D01*
X225316612Y-59177714D01*
X225316610Y-59177713D01*
X225259653Y-59148691D01*
X225134223Y-59084781D01*
X224943868Y-59022931D01*
X224886193Y-58983493D01*
X224858995Y-58919134D01*
X224870910Y-58850288D01*
X224918154Y-58798812D01*
X224943868Y-58787069D01*
X224986508Y-58773213D01*
X225134219Y-58725220D01*
X225316610Y-58632287D01*
X225409590Y-58564732D01*
X225482213Y-58511971D01*
X225482215Y-58511968D01*
X225482219Y-58511966D01*
X225626966Y-58367219D01*
X225626968Y-58367215D01*
X225626971Y-58367213D01*
X225679732Y-58294590D01*
X225747287Y-58201610D01*
X225840220Y-58019219D01*
X225903477Y-57824534D01*
X225935500Y-57622352D01*
X225935500Y-57417648D01*
X225934892Y-57413812D01*
X225903477Y-57215465D01*
X225840218Y-57020776D01*
X225806503Y-56954607D01*
X225747287Y-56838390D01*
X225686928Y-56755312D01*
X225626971Y-56672786D01*
X225482213Y-56528028D01*
X225316613Y-56407715D01*
X225316612Y-56407714D01*
X225316610Y-56407713D01*
X225222560Y-56359792D01*
X225134223Y-56314781D01*
X224943868Y-56252931D01*
X224886193Y-56213493D01*
X224858995Y-56149134D01*
X224870910Y-56080288D01*
X224918154Y-56028812D01*
X224943868Y-56017069D01*
X224986508Y-56003213D01*
X225134219Y-55955220D01*
X225316610Y-55862287D01*
X225409590Y-55794732D01*
X225482213Y-55741971D01*
X225482215Y-55741968D01*
X225482219Y-55741966D01*
X225626966Y-55597219D01*
X225626968Y-55597215D01*
X225626971Y-55597213D01*
X225679732Y-55524590D01*
X225747287Y-55431610D01*
X225840220Y-55249219D01*
X225903477Y-55054534D01*
X225935500Y-54852352D01*
X225935500Y-54647648D01*
X225934892Y-54643812D01*
X225903477Y-54445465D01*
X225864319Y-54324949D01*
X225840220Y-54250781D01*
X225840218Y-54250778D01*
X225840218Y-54250776D01*
X225783038Y-54138556D01*
X225747287Y-54068390D01*
X225731463Y-54046610D01*
X225626971Y-53902786D01*
X225482213Y-53758028D01*
X225316613Y-53637715D01*
X225316612Y-53637714D01*
X225316610Y-53637713D01*
X225259653Y-53608691D01*
X225134223Y-53544781D01*
X225097010Y-53532690D01*
X225065431Y-53522429D01*
X225007757Y-53482992D01*
X224980559Y-53418633D01*
X224992474Y-53349787D01*
X225039718Y-53298311D01*
X225103750Y-53280499D01*
X225482872Y-53280499D01*
X225542483Y-53274091D01*
X225573163Y-53262648D01*
X226174500Y-53262648D01*
X226174500Y-53467351D01*
X226206522Y-53669534D01*
X226269781Y-53864223D01*
X226362715Y-54046613D01*
X226483028Y-54212213D01*
X226627786Y-54356971D01*
X226755681Y-54449890D01*
X226793390Y-54477287D01*
X226909607Y-54536503D01*
X226975776Y-54570218D01*
X226975778Y-54570218D01*
X226975781Y-54570220D01*
X227054956Y-54595945D01*
X227166131Y-54632069D01*
X227223806Y-54671507D01*
X227251004Y-54735866D01*
X227239089Y-54804712D01*
X227191845Y-54856188D01*
X227166131Y-54867931D01*
X226975776Y-54929781D01*
X226793386Y-55022715D01*
X226627786Y-55143028D01*
X226483028Y-55287786D01*
X226362715Y-55453386D01*
X226269781Y-55635776D01*
X226206522Y-55830465D01*
X226174500Y-56032648D01*
X226174500Y-56237351D01*
X226206522Y-56439534D01*
X226269781Y-56634223D01*
X226362715Y-56816613D01*
X226483028Y-56982213D01*
X226627786Y-57126971D01*
X226782749Y-57239556D01*
X226793390Y-57247287D01*
X226909607Y-57306503D01*
X226975776Y-57340218D01*
X226975778Y-57340218D01*
X226975781Y-57340220D01*
X227054956Y-57365945D01*
X227166131Y-57402069D01*
X227223806Y-57441507D01*
X227251004Y-57505866D01*
X227239089Y-57574712D01*
X227191845Y-57626188D01*
X227166131Y-57637931D01*
X226975776Y-57699781D01*
X226793386Y-57792715D01*
X226627786Y-57913028D01*
X226483028Y-58057786D01*
X226362715Y-58223386D01*
X226269781Y-58405776D01*
X226206522Y-58600465D01*
X226174500Y-58802648D01*
X226174500Y-59007351D01*
X226206522Y-59209534D01*
X226269781Y-59404223D01*
X226362715Y-59586613D01*
X226483028Y-59752213D01*
X226627786Y-59896971D01*
X226782749Y-60009556D01*
X226793390Y-60017287D01*
X226909607Y-60076503D01*
X226975776Y-60110218D01*
X226975778Y-60110218D01*
X226975781Y-60110220D01*
X227054956Y-60135945D01*
X227166131Y-60172069D01*
X227223806Y-60211507D01*
X227251004Y-60275866D01*
X227239089Y-60344712D01*
X227191845Y-60396188D01*
X227166131Y-60407931D01*
X226975776Y-60469781D01*
X226793386Y-60562715D01*
X226627786Y-60683028D01*
X226483028Y-60827786D01*
X226362715Y-60993386D01*
X226269781Y-61175776D01*
X226206522Y-61370465D01*
X226174500Y-61572648D01*
X226174500Y-61777351D01*
X226206522Y-61979534D01*
X226269781Y-62174223D01*
X226333691Y-62299653D01*
X226351231Y-62334076D01*
X226362715Y-62356613D01*
X226483028Y-62522213D01*
X226627786Y-62666971D01*
X226746188Y-62752993D01*
X226793390Y-62787287D01*
X226909607Y-62846503D01*
X226975776Y-62880218D01*
X226975778Y-62880218D01*
X226975781Y-62880220D01*
X227058223Y-62907007D01*
X227170465Y-62943477D01*
X227260151Y-62957682D01*
X227372648Y-62975500D01*
X227372649Y-62975500D01*
X227577351Y-62975500D01*
X227577352Y-62975500D01*
X227779534Y-62943477D01*
X227974219Y-62880220D01*
X228156610Y-62787287D01*
X228267879Y-62706446D01*
X228322213Y-62666971D01*
X228322215Y-62666968D01*
X228322219Y-62666966D01*
X228466966Y-62522219D01*
X228466968Y-62522215D01*
X228466971Y-62522213D01*
X228571278Y-62378644D01*
X228587287Y-62356610D01*
X228680220Y-62174219D01*
X228743477Y-61979534D01*
X228775500Y-61777352D01*
X228775500Y-61572648D01*
X228774934Y-61569074D01*
X228743477Y-61370465D01*
X228680218Y-61175776D01*
X228630608Y-61078412D01*
X228587287Y-60993390D01*
X228571463Y-60971610D01*
X228466971Y-60827786D01*
X228322213Y-60683028D01*
X228156613Y-60562715D01*
X228156612Y-60562714D01*
X228156610Y-60562713D01*
X228099653Y-60533691D01*
X227974223Y-60469781D01*
X227783868Y-60407931D01*
X227726193Y-60368493D01*
X227698995Y-60304134D01*
X227710910Y-60235288D01*
X227758154Y-60183812D01*
X227783868Y-60172069D01*
X227826508Y-60158213D01*
X227974219Y-60110220D01*
X228156610Y-60017287D01*
X228249590Y-59949732D01*
X228322213Y-59896971D01*
X228322215Y-59896968D01*
X228322219Y-59896966D01*
X228466966Y-59752219D01*
X228466968Y-59752215D01*
X228466971Y-59752213D01*
X228519732Y-59679590D01*
X228587287Y-59586610D01*
X228680220Y-59404219D01*
X228743477Y-59209534D01*
X228775500Y-59007352D01*
X228775500Y-58802648D01*
X228774892Y-58798812D01*
X228743477Y-58600465D01*
X228680218Y-58405776D01*
X228644789Y-58336243D01*
X228587287Y-58223390D01*
X228571463Y-58201610D01*
X228466971Y-58057786D01*
X228322213Y-57913028D01*
X228156613Y-57792715D01*
X228156612Y-57792714D01*
X228156610Y-57792713D01*
X228099653Y-57763691D01*
X227974223Y-57699781D01*
X227783868Y-57637931D01*
X227726193Y-57598493D01*
X227698995Y-57534134D01*
X227710910Y-57465288D01*
X227758154Y-57413812D01*
X227783868Y-57402069D01*
X227826508Y-57388213D01*
X227974219Y-57340220D01*
X228156610Y-57247287D01*
X228249590Y-57179732D01*
X228322213Y-57126971D01*
X228322215Y-57126968D01*
X228322219Y-57126966D01*
X228466966Y-56982219D01*
X228466968Y-56982215D01*
X228466971Y-56982213D01*
X228555409Y-56860486D01*
X228587287Y-56816610D01*
X228680220Y-56634219D01*
X228743477Y-56439534D01*
X228775500Y-56237352D01*
X228775500Y-56032648D01*
X228774892Y-56028812D01*
X228743477Y-55830465D01*
X228680218Y-55635776D01*
X228646503Y-55569607D01*
X228587287Y-55453390D01*
X228529399Y-55373713D01*
X228466971Y-55287786D01*
X228322213Y-55143028D01*
X228156613Y-55022715D01*
X228156612Y-55022714D01*
X228156610Y-55022713D01*
X228099653Y-54993691D01*
X227974223Y-54929781D01*
X227783868Y-54867931D01*
X227726193Y-54828493D01*
X227698995Y-54764134D01*
X227710910Y-54695288D01*
X227758154Y-54643812D01*
X227783868Y-54632069D01*
X227826508Y-54618213D01*
X227974219Y-54570220D01*
X228156610Y-54477287D01*
X228249590Y-54409732D01*
X228322213Y-54356971D01*
X228322215Y-54356968D01*
X228322219Y-54356966D01*
X228466966Y-54212219D01*
X228466968Y-54212215D01*
X228466971Y-54212213D01*
X228548850Y-54099514D01*
X228587287Y-54046610D01*
X228680220Y-53864219D01*
X228743477Y-53669534D01*
X228775500Y-53467352D01*
X228775500Y-53262648D01*
X228755686Y-53137547D01*
X228743477Y-53060465D01*
X228680218Y-52865776D01*
X228646503Y-52799607D01*
X228587287Y-52683390D01*
X228543964Y-52623760D01*
X228466971Y-52517786D01*
X228322213Y-52373028D01*
X228156613Y-52252715D01*
X228156612Y-52252714D01*
X228156610Y-52252713D01*
X228099653Y-52223691D01*
X227974223Y-52159781D01*
X227779534Y-52096522D01*
X227604995Y-52068878D01*
X227577352Y-52064500D01*
X227372648Y-52064500D01*
X227348329Y-52068351D01*
X227170465Y-52096522D01*
X226975776Y-52159781D01*
X226793386Y-52252715D01*
X226627786Y-52373028D01*
X226483028Y-52517786D01*
X226362715Y-52683386D01*
X226269781Y-52865776D01*
X226206522Y-53060465D01*
X226174500Y-53262648D01*
X225573163Y-53262648D01*
X225677331Y-53223796D01*
X225792546Y-53137546D01*
X225878796Y-53022331D01*
X225929091Y-52887483D01*
X225935500Y-52827873D01*
X225935499Y-51132128D01*
X225929091Y-51072517D01*
X225929088Y-51072510D01*
X225878797Y-50937671D01*
X225878793Y-50937664D01*
X225792547Y-50822455D01*
X225792544Y-50822452D01*
X225677335Y-50736206D01*
X225677328Y-50736202D01*
X225542482Y-50685908D01*
X225542483Y-50685908D01*
X225482883Y-50679501D01*
X225482881Y-50679500D01*
X225482873Y-50679500D01*
X225482864Y-50679500D01*
X223787129Y-50679500D01*
X223787123Y-50679501D01*
X223727516Y-50685908D01*
X223592671Y-50736202D01*
X223592664Y-50736206D01*
X223477455Y-50822452D01*
X223477452Y-50822455D01*
X223391206Y-50937664D01*
X223391202Y-50937671D01*
X223340908Y-51072517D01*
X223337113Y-51107820D01*
X223334501Y-51132123D01*
X223334500Y-51132135D01*
X190437382Y-51132135D01*
X190455050Y-51107817D01*
X190473041Y-51072510D01*
X190506381Y-51007075D01*
X190551557Y-50918412D01*
X190617246Y-50716243D01*
X190650500Y-50506287D01*
X190650500Y-50293713D01*
X190617246Y-50083757D01*
X190551557Y-49881588D01*
X190455051Y-49692184D01*
X190455049Y-49692181D01*
X190455048Y-49692179D01*
X190330109Y-49520213D01*
X190179786Y-49369890D01*
X190007820Y-49244951D01*
X189818414Y-49148444D01*
X189818413Y-49148443D01*
X189818412Y-49148443D01*
X189616243Y-49082754D01*
X189616241Y-49082753D01*
X189616240Y-49082753D01*
X189454957Y-49057208D01*
X189406287Y-49049500D01*
X189193713Y-49049500D01*
X189145042Y-49057208D01*
X188983760Y-49082753D01*
X188781585Y-49148444D01*
X188592179Y-49244951D01*
X188420213Y-49369890D01*
X188269890Y-49520213D01*
X188144951Y-49692179D01*
X188048444Y-49881585D01*
X187982753Y-50083760D01*
X187949500Y-50293713D01*
X178500500Y-50293713D01*
X178500500Y-44879568D01*
X223554500Y-44879568D01*
X223554500Y-45160431D01*
X223585942Y-45439494D01*
X223585945Y-45439512D01*
X223648439Y-45713317D01*
X223648443Y-45713329D01*
X223741200Y-45978411D01*
X223863053Y-46231442D01*
X223863055Y-46231445D01*
X224012477Y-46469248D01*
X224187584Y-46688825D01*
X224386175Y-46887416D01*
X224605752Y-47062523D01*
X224843555Y-47211945D01*
X225096592Y-47333801D01*
X225295680Y-47403465D01*
X225361670Y-47426556D01*
X225361682Y-47426560D01*
X225635491Y-47489055D01*
X225635497Y-47489055D01*
X225635505Y-47489057D01*
X225821547Y-47510018D01*
X225914569Y-47520499D01*
X225914572Y-47520500D01*
X225914575Y-47520500D01*
X226195428Y-47520500D01*
X226195429Y-47520499D01*
X226338055Y-47504429D01*
X226474494Y-47489057D01*
X226474499Y-47489056D01*
X226474509Y-47489055D01*
X226748318Y-47426560D01*
X227013408Y-47333801D01*
X227266445Y-47211945D01*
X227504248Y-47062523D01*
X227723825Y-46887416D01*
X227922416Y-46688825D01*
X228097523Y-46469248D01*
X228246945Y-46231445D01*
X228368801Y-45978408D01*
X228461560Y-45713318D01*
X228524055Y-45439509D01*
X228555500Y-45160425D01*
X228555500Y-44879575D01*
X228524055Y-44600491D01*
X228461560Y-44326682D01*
X228368801Y-44061592D01*
X228246945Y-43808555D01*
X228097523Y-43570752D01*
X227922416Y-43351175D01*
X227723825Y-43152584D01*
X227504248Y-42977477D01*
X227266445Y-42828055D01*
X227266442Y-42828053D01*
X227013411Y-42706200D01*
X226748329Y-42613443D01*
X226748317Y-42613439D01*
X226474512Y-42550945D01*
X226474494Y-42550942D01*
X226195431Y-42519500D01*
X226195425Y-42519500D01*
X225914575Y-42519500D01*
X225914568Y-42519500D01*
X225635505Y-42550942D01*
X225635487Y-42550945D01*
X225361682Y-42613439D01*
X225361670Y-42613443D01*
X225096588Y-42706200D01*
X224843557Y-42828053D01*
X224605753Y-42977476D01*
X224386175Y-43152583D01*
X224187583Y-43351175D01*
X224012476Y-43570753D01*
X223863053Y-43808557D01*
X223741200Y-44061588D01*
X223648443Y-44326670D01*
X223648439Y-44326682D01*
X223585945Y-44600487D01*
X223585942Y-44600505D01*
X223554500Y-44879568D01*
X178500500Y-44879568D01*
X178500500Y-41624500D01*
X178520185Y-41557461D01*
X178572989Y-41511706D01*
X178624500Y-41500500D01*
X234375500Y-41500500D01*
X234442539Y-41520185D01*
G37*
%TD.AperFunction*%
%TD*%
M02*
