%TF.GenerationSoftware,KiCad,Pcbnew,9.0.1*%
%TF.CreationDate,2025-05-08T11:58:12-04:00*%
%TF.ProjectId,Meterbus-interface,4d657465-7262-4757-932d-696e74657266,rev?*%
%TF.SameCoordinates,Original*%
%TF.FileFunction,Legend,Top*%
%TF.FilePolarity,Positive*%
%FSLAX46Y46*%
G04 Gerber Fmt 4.6, Leading zero omitted, Abs format (unit mm)*
G04 Created by KiCad (PCBNEW 9.0.1) date 2025-05-08 11:58:12*
%MOMM*%
%LPD*%
G01*
G04 APERTURE LIST*
%ADD10C,0.150000*%
%ADD11C,0.120000*%
G04 APERTURE END LIST*
D10*
X210653333Y-62219819D02*
X210320000Y-61743628D01*
X210081905Y-62219819D02*
X210081905Y-61219819D01*
X210081905Y-61219819D02*
X210462857Y-61219819D01*
X210462857Y-61219819D02*
X210558095Y-61267438D01*
X210558095Y-61267438D02*
X210605714Y-61315057D01*
X210605714Y-61315057D02*
X210653333Y-61410295D01*
X210653333Y-61410295D02*
X210653333Y-61553152D01*
X210653333Y-61553152D02*
X210605714Y-61648390D01*
X210605714Y-61648390D02*
X210558095Y-61696009D01*
X210558095Y-61696009D02*
X210462857Y-61743628D01*
X210462857Y-61743628D02*
X210081905Y-61743628D01*
X211034286Y-61315057D02*
X211081905Y-61267438D01*
X211081905Y-61267438D02*
X211177143Y-61219819D01*
X211177143Y-61219819D02*
X211415238Y-61219819D01*
X211415238Y-61219819D02*
X211510476Y-61267438D01*
X211510476Y-61267438D02*
X211558095Y-61315057D01*
X211558095Y-61315057D02*
X211605714Y-61410295D01*
X211605714Y-61410295D02*
X211605714Y-61505533D01*
X211605714Y-61505533D02*
X211558095Y-61648390D01*
X211558095Y-61648390D02*
X210986667Y-62219819D01*
X210986667Y-62219819D02*
X211605714Y-62219819D01*
X215098333Y-49519819D02*
X214765000Y-49043628D01*
X214526905Y-49519819D02*
X214526905Y-48519819D01*
X214526905Y-48519819D02*
X214907857Y-48519819D01*
X214907857Y-48519819D02*
X215003095Y-48567438D01*
X215003095Y-48567438D02*
X215050714Y-48615057D01*
X215050714Y-48615057D02*
X215098333Y-48710295D01*
X215098333Y-48710295D02*
X215098333Y-48853152D01*
X215098333Y-48853152D02*
X215050714Y-48948390D01*
X215050714Y-48948390D02*
X215003095Y-48996009D01*
X215003095Y-48996009D02*
X214907857Y-49043628D01*
X214907857Y-49043628D02*
X214526905Y-49043628D01*
X216050714Y-49519819D02*
X215479286Y-49519819D01*
X215765000Y-49519819D02*
X215765000Y-48519819D01*
X215765000Y-48519819D02*
X215669762Y-48662676D01*
X215669762Y-48662676D02*
X215574524Y-48757914D01*
X215574524Y-48757914D02*
X215479286Y-48805533D01*
X196884819Y-63603094D02*
X195884819Y-63603094D01*
X195884819Y-63603094D02*
X195884819Y-63364999D01*
X195884819Y-63364999D02*
X195932438Y-63222142D01*
X195932438Y-63222142D02*
X196027676Y-63126904D01*
X196027676Y-63126904D02*
X196122914Y-63079285D01*
X196122914Y-63079285D02*
X196313390Y-63031666D01*
X196313390Y-63031666D02*
X196456247Y-63031666D01*
X196456247Y-63031666D02*
X196646723Y-63079285D01*
X196646723Y-63079285D02*
X196741961Y-63126904D01*
X196741961Y-63126904D02*
X196837200Y-63222142D01*
X196837200Y-63222142D02*
X196884819Y-63364999D01*
X196884819Y-63364999D02*
X196884819Y-63603094D01*
X195980057Y-62650713D02*
X195932438Y-62603094D01*
X195932438Y-62603094D02*
X195884819Y-62507856D01*
X195884819Y-62507856D02*
X195884819Y-62269761D01*
X195884819Y-62269761D02*
X195932438Y-62174523D01*
X195932438Y-62174523D02*
X195980057Y-62126904D01*
X195980057Y-62126904D02*
X196075295Y-62079285D01*
X196075295Y-62079285D02*
X196170533Y-62079285D01*
X196170533Y-62079285D02*
X196313390Y-62126904D01*
X196313390Y-62126904D02*
X196884819Y-62698332D01*
X196884819Y-62698332D02*
X196884819Y-62079285D01*
X196564819Y-56776904D02*
X195564819Y-56776904D01*
X196564819Y-56205476D02*
X195993390Y-56634047D01*
X195564819Y-56205476D02*
X196136247Y-56776904D01*
X200556905Y-49769819D02*
X200556905Y-48769819D01*
X200556905Y-48769819D02*
X200795000Y-48769819D01*
X200795000Y-48769819D02*
X200937857Y-48817438D01*
X200937857Y-48817438D02*
X201033095Y-48912676D01*
X201033095Y-48912676D02*
X201080714Y-49007914D01*
X201080714Y-49007914D02*
X201128333Y-49198390D01*
X201128333Y-49198390D02*
X201128333Y-49341247D01*
X201128333Y-49341247D02*
X201080714Y-49531723D01*
X201080714Y-49531723D02*
X201033095Y-49626961D01*
X201033095Y-49626961D02*
X200937857Y-49722200D01*
X200937857Y-49722200D02*
X200795000Y-49769819D01*
X200795000Y-49769819D02*
X200556905Y-49769819D01*
X201985476Y-49103152D02*
X201985476Y-49769819D01*
X201747381Y-48722200D02*
X201509286Y-49436485D01*
X201509286Y-49436485D02*
X202128333Y-49436485D01*
X194683095Y-50089819D02*
X194683095Y-49089819D01*
X195254523Y-50089819D02*
X194825952Y-49518390D01*
X195254523Y-49089819D02*
X194683095Y-49661247D01*
X200694819Y-63603094D02*
X199694819Y-63603094D01*
X199694819Y-63603094D02*
X199694819Y-63364999D01*
X199694819Y-63364999D02*
X199742438Y-63222142D01*
X199742438Y-63222142D02*
X199837676Y-63126904D01*
X199837676Y-63126904D02*
X199932914Y-63079285D01*
X199932914Y-63079285D02*
X200123390Y-63031666D01*
X200123390Y-63031666D02*
X200266247Y-63031666D01*
X200266247Y-63031666D02*
X200456723Y-63079285D01*
X200456723Y-63079285D02*
X200551961Y-63126904D01*
X200551961Y-63126904D02*
X200647200Y-63222142D01*
X200647200Y-63222142D02*
X200694819Y-63364999D01*
X200694819Y-63364999D02*
X200694819Y-63603094D01*
X199694819Y-62698332D02*
X199694819Y-62079285D01*
X199694819Y-62079285D02*
X200075771Y-62412618D01*
X200075771Y-62412618D02*
X200075771Y-62269761D01*
X200075771Y-62269761D02*
X200123390Y-62174523D01*
X200123390Y-62174523D02*
X200171009Y-62126904D01*
X200171009Y-62126904D02*
X200266247Y-62079285D01*
X200266247Y-62079285D02*
X200504342Y-62079285D01*
X200504342Y-62079285D02*
X200599580Y-62126904D01*
X200599580Y-62126904D02*
X200647200Y-62174523D01*
X200647200Y-62174523D02*
X200694819Y-62269761D01*
X200694819Y-62269761D02*
X200694819Y-62555475D01*
X200694819Y-62555475D02*
X200647200Y-62650713D01*
X200647200Y-62650713D02*
X200599580Y-62698332D01*
X200374819Y-56776904D02*
X199374819Y-56776904D01*
X200374819Y-56205476D02*
X199803390Y-56634047D01*
X199374819Y-56205476D02*
X199946247Y-56776904D01*
X184581666Y-66494819D02*
X184581666Y-67209104D01*
X184581666Y-67209104D02*
X184534047Y-67351961D01*
X184534047Y-67351961D02*
X184438809Y-67447200D01*
X184438809Y-67447200D02*
X184295952Y-67494819D01*
X184295952Y-67494819D02*
X184200714Y-67494819D01*
X185534047Y-66494819D02*
X185057857Y-66494819D01*
X185057857Y-66494819D02*
X185010238Y-66971009D01*
X185010238Y-66971009D02*
X185057857Y-66923390D01*
X185057857Y-66923390D02*
X185153095Y-66875771D01*
X185153095Y-66875771D02*
X185391190Y-66875771D01*
X185391190Y-66875771D02*
X185486428Y-66923390D01*
X185486428Y-66923390D02*
X185534047Y-66971009D01*
X185534047Y-66971009D02*
X185581666Y-67066247D01*
X185581666Y-67066247D02*
X185581666Y-67304342D01*
X185581666Y-67304342D02*
X185534047Y-67399580D01*
X185534047Y-67399580D02*
X185486428Y-67447200D01*
X185486428Y-67447200D02*
X185391190Y-67494819D01*
X185391190Y-67494819D02*
X185153095Y-67494819D01*
X185153095Y-67494819D02*
X185057857Y-67447200D01*
X185057857Y-67447200D02*
X185010238Y-67399580D01*
X221289819Y-57853333D02*
X222004104Y-57853333D01*
X222004104Y-57853333D02*
X222146961Y-57900952D01*
X222146961Y-57900952D02*
X222242200Y-57996190D01*
X222242200Y-57996190D02*
X222289819Y-58139047D01*
X222289819Y-58139047D02*
X222289819Y-58234285D01*
X221623152Y-56948571D02*
X222289819Y-56948571D01*
X221242200Y-57186666D02*
X221956485Y-57424761D01*
X221956485Y-57424761D02*
X221956485Y-56805714D01*
D11*
%TO.C,R2*%
X206780000Y-64135000D02*
X207550000Y-64135000D01*
X207550000Y-62765000D02*
X207550000Y-65505000D01*
X207550000Y-65505000D02*
X214090000Y-65505000D01*
X214090000Y-62765000D02*
X207550000Y-62765000D01*
X214090000Y-65505000D02*
X214090000Y-62765000D01*
X214860000Y-64135000D02*
X214090000Y-64135000D01*
%TO.C,R1*%
X219305000Y-51435000D02*
X218535000Y-51435000D01*
X218535000Y-52805000D02*
X218535000Y-50065000D01*
X218535000Y-50065000D02*
X211995000Y-50065000D01*
X211995000Y-52805000D02*
X218535000Y-52805000D01*
X211995000Y-50065000D02*
X211995000Y-52805000D01*
X211225000Y-51435000D02*
X211995000Y-51435000D01*
%TO.C,D2*%
X194310000Y-68175000D02*
X194310000Y-64985000D01*
X193190000Y-64985000D02*
X195430000Y-64985000D01*
X195430000Y-64985000D02*
X195430000Y-60745000D01*
X195430000Y-61585000D02*
X193190000Y-61585000D01*
X195430000Y-61465000D02*
X193190000Y-61465000D01*
X195430000Y-61345000D02*
X193190000Y-61345000D01*
X193190000Y-60745000D02*
X193190000Y-64985000D01*
X195430000Y-60745000D02*
X193190000Y-60745000D01*
X194310000Y-57555000D02*
X194310000Y-60745000D01*
%TO.C,D4*%
X195985000Y-51435000D02*
X199175000Y-51435000D01*
X199175000Y-50315000D02*
X199175000Y-52555000D01*
X199175000Y-52555000D02*
X203415000Y-52555000D01*
X199775000Y-50315000D02*
X199775000Y-52555000D01*
X199895000Y-50315000D02*
X199895000Y-52555000D01*
X200015000Y-50315000D02*
X200015000Y-52555000D01*
X203415000Y-50315000D02*
X199175000Y-50315000D01*
X203415000Y-52555000D02*
X203415000Y-50315000D01*
X206605000Y-51435000D02*
X203415000Y-51435000D01*
%TO.C,D3*%
X198120000Y-57555000D02*
X198120000Y-60745000D01*
X199240000Y-60745000D02*
X197000000Y-60745000D01*
X197000000Y-60745000D02*
X197000000Y-64985000D01*
X199240000Y-61345000D02*
X197000000Y-61345000D01*
X199240000Y-61465000D02*
X197000000Y-61465000D01*
X199240000Y-61585000D02*
X197000000Y-61585000D01*
X199240000Y-64985000D02*
X199240000Y-60745000D01*
X197000000Y-64985000D02*
X199240000Y-64985000D01*
X198120000Y-68175000D02*
X198120000Y-64985000D01*
%TO.C,J5*%
X179150000Y-51640000D02*
X185150000Y-51640000D01*
X179150000Y-52500000D02*
X179150000Y-51640000D01*
X179150000Y-54180000D02*
X185150000Y-54180000D01*
X179150000Y-55040000D02*
X179150000Y-54180000D01*
X179150000Y-56720000D02*
X185150000Y-56720000D01*
X179150000Y-57580000D02*
X179150000Y-56720000D01*
X179150000Y-59260000D02*
X185150000Y-59260000D01*
X179150000Y-60120000D02*
X179150000Y-59260000D01*
X179150000Y-61800000D02*
X185150000Y-61800000D01*
X179150000Y-62660000D02*
X179150000Y-61800000D01*
X185150000Y-50690000D02*
X185150000Y-66150000D01*
X185150000Y-52500000D02*
X179150000Y-52500000D01*
X185150000Y-55040000D02*
X179150000Y-55040000D01*
X185150000Y-57580000D02*
X179150000Y-57580000D01*
X185150000Y-60120000D02*
X179150000Y-60120000D01*
X185150000Y-62660000D02*
X179150000Y-62660000D01*
X185150000Y-66150000D02*
X187910000Y-66150000D01*
X187910000Y-50690000D02*
X185150000Y-50690000D01*
X187910000Y-53340000D02*
X185150000Y-53340000D01*
X187910000Y-55880000D02*
X185150000Y-55880000D01*
X187910000Y-58420000D02*
X185150000Y-58420000D01*
X187910000Y-60960000D02*
X185150000Y-60960000D01*
X187910000Y-63500000D02*
X185150000Y-63500000D01*
X187910000Y-66150000D02*
X187910000Y-50690000D01*
X188140000Y-64340000D02*
X187910000Y-64340000D01*
X188140000Y-65200000D02*
X187910000Y-65200000D01*
X188222642Y-51640000D02*
X187910000Y-51640000D01*
X188222642Y-52500000D02*
X187910000Y-52500000D01*
X188222642Y-54180000D02*
X187910000Y-54180000D01*
X188222642Y-55040000D02*
X187910000Y-55040000D01*
X188222642Y-56720000D02*
X187910000Y-56720000D01*
X188222642Y-57580000D02*
X187910000Y-57580000D01*
X188222642Y-59260000D02*
X187910000Y-59260000D01*
X188222642Y-60120000D02*
X187910000Y-60120000D01*
X188222642Y-61800000D02*
X187910000Y-61800000D01*
X188222642Y-62660000D02*
X187910000Y-62660000D01*
X190570000Y-64770000D02*
X190570000Y-66040000D01*
X190570000Y-66040000D02*
X189300000Y-66040000D01*
X185150000Y-65200000D02*
X179150000Y-65200000D01*
X179150000Y-64340000D01*
X185150000Y-64340000D01*
X185150000Y-65200000D01*
G36*
X185150000Y-65200000D02*
G01*
X179150000Y-65200000D01*
X179150000Y-64340000D01*
X185150000Y-64340000D01*
X185150000Y-65200000D01*
G37*
%TO.C,J4*%
X221880662Y-51730000D02*
X222313675Y-51980000D01*
X221880662Y-52230000D02*
X221880662Y-51730000D01*
X222313675Y-51980000D02*
X221880662Y-52230000D01*
X222775000Y-42035000D02*
X235115000Y-42035000D01*
X222775000Y-73005000D02*
X222775000Y-42035000D01*
X235115000Y-73005000D02*
X222775000Y-73005000D01*
%TD*%
M02*
