%TF.GenerationSoftware,KiCad,Pcbnew,9.0.1*%
%TF.CreationDate,2025-05-08T11:58:12-04:00*%
%TF.ProjectId,Meterbus-interface,4d657465-7262-4757-932d-696e74657266,rev?*%
%TF.SameCoordinates,Original*%
%TF.FileFunction,Soldermask,Top*%
%TF.FilePolarity,Negative*%
%FSLAX46Y46*%
G04 Gerber Fmt 4.6, Leading zero omitted, Abs format (unit mm)*
G04 Created by KiCad (PCBNEW 9.0.1) date 2025-05-08 11:58:12*
%MOMM*%
%LPD*%
G01*
G04 APERTURE LIST*
G04 APERTURE END LIST*
G36*
X226445181Y-68058429D02*
G01*
X226697879Y-68126140D01*
X226939577Y-68226255D01*
X227166140Y-68357061D01*
X227373692Y-68516320D01*
X227558680Y-68701308D01*
X227717939Y-68908860D01*
X227848745Y-69135423D01*
X227948860Y-69377121D01*
X228016571Y-69629819D01*
X228050718Y-69889194D01*
X228050718Y-70150806D01*
X228016571Y-70410181D01*
X227948860Y-70662879D01*
X227848745Y-70904577D01*
X227717939Y-71131140D01*
X227558680Y-71338692D01*
X227373692Y-71523680D01*
X227166140Y-71682939D01*
X226939577Y-71813745D01*
X226697879Y-71913860D01*
X226445181Y-71981571D01*
X226185806Y-72015718D01*
X225924194Y-72015718D01*
X225664819Y-71981571D01*
X225412121Y-71913860D01*
X225170423Y-71813745D01*
X224943860Y-71682939D01*
X224736308Y-71523680D01*
X224551320Y-71338692D01*
X224392061Y-71131140D01*
X224261255Y-70904577D01*
X224161140Y-70662879D01*
X224093429Y-70410181D01*
X224059282Y-70150806D01*
X224059282Y-69889194D01*
X224093429Y-69629819D01*
X224161140Y-69377121D01*
X224261255Y-69135423D01*
X224392061Y-68908860D01*
X224551320Y-68701308D01*
X224736308Y-68516320D01*
X224943860Y-68357061D01*
X225170423Y-68226255D01*
X225412121Y-68126140D01*
X225664819Y-68058429D01*
X225924194Y-68024282D01*
X226185806Y-68024282D01*
X226445181Y-68058429D01*
G37*
G36*
X194542228Y-68449448D02*
G01*
X194687117Y-68509463D01*
X194817515Y-68596592D01*
X194928408Y-68707485D01*
X195015537Y-68837883D01*
X195075552Y-68982772D01*
X195106148Y-69136586D01*
X195106148Y-69293414D01*
X195075552Y-69447228D01*
X195015537Y-69592117D01*
X194928408Y-69722515D01*
X194817515Y-69833408D01*
X194687117Y-69920537D01*
X194542228Y-69980552D01*
X194388414Y-70011148D01*
X194231586Y-70011148D01*
X194077772Y-69980552D01*
X193932883Y-69920537D01*
X193802485Y-69833408D01*
X193691592Y-69722515D01*
X193604463Y-69592117D01*
X193544448Y-69447228D01*
X193513852Y-69293414D01*
X193513852Y-69136586D01*
X193544448Y-68982772D01*
X193604463Y-68837883D01*
X193691592Y-68707485D01*
X193802485Y-68596592D01*
X193932883Y-68509463D01*
X194077772Y-68449448D01*
X194231586Y-68418852D01*
X194388414Y-68418852D01*
X194542228Y-68449448D01*
G37*
G36*
X198352228Y-68449448D02*
G01*
X198497117Y-68509463D01*
X198627515Y-68596592D01*
X198738408Y-68707485D01*
X198825537Y-68837883D01*
X198885552Y-68982772D01*
X198916148Y-69136586D01*
X198916148Y-69293414D01*
X198885552Y-69447228D01*
X198825537Y-69592117D01*
X198738408Y-69722515D01*
X198627515Y-69833408D01*
X198497117Y-69920537D01*
X198352228Y-69980552D01*
X198198414Y-70011148D01*
X198041586Y-70011148D01*
X197887772Y-69980552D01*
X197742883Y-69920537D01*
X197612485Y-69833408D01*
X197501592Y-69722515D01*
X197414463Y-69592117D01*
X197354448Y-69447228D01*
X197323852Y-69293414D01*
X197323852Y-69136586D01*
X197354448Y-68982772D01*
X197414463Y-68837883D01*
X197501592Y-68707485D01*
X197612485Y-68596592D01*
X197742883Y-68509463D01*
X197887772Y-68449448D01*
X198041586Y-68418852D01*
X198198414Y-68418852D01*
X198352228Y-68449448D01*
G37*
G36*
X190150000Y-65620000D02*
G01*
X188450000Y-65620000D01*
X188450000Y-63920000D01*
X190150000Y-63920000D01*
X190150000Y-65620000D01*
G37*
G36*
X205972228Y-63369448D02*
G01*
X206117117Y-63429463D01*
X206247515Y-63516592D01*
X206358408Y-63627485D01*
X206445537Y-63757883D01*
X206505552Y-63902772D01*
X206536148Y-64056586D01*
X206536148Y-64213414D01*
X206505552Y-64367228D01*
X206445537Y-64512117D01*
X206358408Y-64642515D01*
X206247515Y-64753408D01*
X206117117Y-64840537D01*
X205972228Y-64900552D01*
X205818414Y-64931148D01*
X205661586Y-64931148D01*
X205507772Y-64900552D01*
X205362883Y-64840537D01*
X205232485Y-64753408D01*
X205121592Y-64642515D01*
X205034463Y-64512117D01*
X204974448Y-64367228D01*
X204943852Y-64213414D01*
X204943852Y-64056586D01*
X204974448Y-63902772D01*
X205034463Y-63757883D01*
X205121592Y-63627485D01*
X205232485Y-63516592D01*
X205362883Y-63429463D01*
X205507772Y-63369448D01*
X205661586Y-63338852D01*
X205818414Y-63338852D01*
X205972228Y-63369448D01*
G37*
G36*
X216132228Y-63369448D02*
G01*
X216277117Y-63429463D01*
X216407515Y-63516592D01*
X216518408Y-63627485D01*
X216605537Y-63757883D01*
X216665552Y-63902772D01*
X216696148Y-64056586D01*
X216696148Y-64213414D01*
X216665552Y-64367228D01*
X216605537Y-64512117D01*
X216518408Y-64642515D01*
X216407515Y-64753408D01*
X216277117Y-64840537D01*
X216132228Y-64900552D01*
X215978414Y-64931148D01*
X215821586Y-64931148D01*
X215667772Y-64900552D01*
X215522883Y-64840537D01*
X215392485Y-64753408D01*
X215281592Y-64642515D01*
X215194463Y-64512117D01*
X215134448Y-64367228D01*
X215103852Y-64213414D01*
X215103852Y-64056586D01*
X215134448Y-63902772D01*
X215194463Y-63757883D01*
X215281592Y-63627485D01*
X215392485Y-63516592D01*
X215522883Y-63429463D01*
X215667772Y-63369448D01*
X215821586Y-63338852D01*
X215978414Y-63338852D01*
X216132228Y-63369448D01*
G37*
G36*
X224867228Y-62294448D02*
G01*
X225012117Y-62354463D01*
X225142515Y-62441592D01*
X225253408Y-62552485D01*
X225340537Y-62682883D01*
X225400552Y-62827772D01*
X225431148Y-62981586D01*
X225431148Y-63138414D01*
X225400552Y-63292228D01*
X225340537Y-63437117D01*
X225253408Y-63567515D01*
X225142515Y-63678408D01*
X225012117Y-63765537D01*
X224867228Y-63825552D01*
X224713414Y-63856148D01*
X224556586Y-63856148D01*
X224402772Y-63825552D01*
X224257883Y-63765537D01*
X224127485Y-63678408D01*
X224016592Y-63567515D01*
X223929463Y-63437117D01*
X223869448Y-63292228D01*
X223838852Y-63138414D01*
X223838852Y-62981586D01*
X223869448Y-62827772D01*
X223929463Y-62682883D01*
X224016592Y-62552485D01*
X224127485Y-62441592D01*
X224257883Y-62354463D01*
X224402772Y-62294448D01*
X224556586Y-62263852D01*
X224713414Y-62263852D01*
X224867228Y-62294448D01*
G37*
G36*
X189546742Y-61416601D02*
G01*
X189700687Y-61480367D01*
X189839234Y-61572941D01*
X189957059Y-61690766D01*
X190049633Y-61829313D01*
X190113399Y-61983258D01*
X190145907Y-62146685D01*
X190145907Y-62313315D01*
X190113399Y-62476742D01*
X190049633Y-62630687D01*
X189957059Y-62769234D01*
X189839234Y-62887059D01*
X189700687Y-62979633D01*
X189546742Y-63043399D01*
X189383315Y-63075907D01*
X189216685Y-63075907D01*
X189053258Y-63043399D01*
X188899313Y-62979633D01*
X188760766Y-62887059D01*
X188642941Y-62769234D01*
X188550367Y-62630687D01*
X188486601Y-62476742D01*
X188454093Y-62313315D01*
X188454093Y-62146685D01*
X188486601Y-61983258D01*
X188550367Y-61829313D01*
X188642941Y-61690766D01*
X188760766Y-61572941D01*
X188899313Y-61480367D01*
X189053258Y-61416601D01*
X189216685Y-61384093D01*
X189383315Y-61384093D01*
X189546742Y-61416601D01*
G37*
G36*
X227707228Y-60909448D02*
G01*
X227852117Y-60969463D01*
X227982515Y-61056592D01*
X228093408Y-61167485D01*
X228180537Y-61297883D01*
X228240552Y-61442772D01*
X228271148Y-61596586D01*
X228271148Y-61753414D01*
X228240552Y-61907228D01*
X228180537Y-62052117D01*
X228093408Y-62182515D01*
X227982515Y-62293408D01*
X227852117Y-62380537D01*
X227707228Y-62440552D01*
X227553414Y-62471148D01*
X227396586Y-62471148D01*
X227242772Y-62440552D01*
X227097883Y-62380537D01*
X226967485Y-62293408D01*
X226856592Y-62182515D01*
X226769463Y-62052117D01*
X226709448Y-61907228D01*
X226678852Y-61753414D01*
X226678852Y-61596586D01*
X226709448Y-61442772D01*
X226769463Y-61297883D01*
X226856592Y-61167485D01*
X226967485Y-61056592D01*
X227097883Y-60969463D01*
X227242772Y-60909448D01*
X227396586Y-60878852D01*
X227553414Y-60878852D01*
X227707228Y-60909448D01*
G37*
G36*
X224867228Y-59524448D02*
G01*
X225012117Y-59584463D01*
X225142515Y-59671592D01*
X225253408Y-59782485D01*
X225340537Y-59912883D01*
X225400552Y-60057772D01*
X225431148Y-60211586D01*
X225431148Y-60368414D01*
X225400552Y-60522228D01*
X225340537Y-60667117D01*
X225253408Y-60797515D01*
X225142515Y-60908408D01*
X225012117Y-60995537D01*
X224867228Y-61055552D01*
X224713414Y-61086148D01*
X224556586Y-61086148D01*
X224402772Y-61055552D01*
X224257883Y-60995537D01*
X224127485Y-60908408D01*
X224016592Y-60797515D01*
X223929463Y-60667117D01*
X223869448Y-60522228D01*
X223838852Y-60368414D01*
X223838852Y-60211586D01*
X223869448Y-60057772D01*
X223929463Y-59912883D01*
X224016592Y-59782485D01*
X224127485Y-59671592D01*
X224257883Y-59584463D01*
X224402772Y-59524448D01*
X224556586Y-59493852D01*
X224713414Y-59493852D01*
X224867228Y-59524448D01*
G37*
G36*
X189546742Y-58876601D02*
G01*
X189700687Y-58940367D01*
X189839234Y-59032941D01*
X189957059Y-59150766D01*
X190049633Y-59289313D01*
X190113399Y-59443258D01*
X190145907Y-59606685D01*
X190145907Y-59773315D01*
X190113399Y-59936742D01*
X190049633Y-60090687D01*
X189957059Y-60229234D01*
X189839234Y-60347059D01*
X189700687Y-60439633D01*
X189546742Y-60503399D01*
X189383315Y-60535907D01*
X189216685Y-60535907D01*
X189053258Y-60503399D01*
X188899313Y-60439633D01*
X188760766Y-60347059D01*
X188642941Y-60229234D01*
X188550367Y-60090687D01*
X188486601Y-59936742D01*
X188454093Y-59773315D01*
X188454093Y-59606685D01*
X188486601Y-59443258D01*
X188550367Y-59289313D01*
X188642941Y-59150766D01*
X188760766Y-59032941D01*
X188899313Y-58940367D01*
X189053258Y-58876601D01*
X189216685Y-58844093D01*
X189383315Y-58844093D01*
X189546742Y-58876601D01*
G37*
G36*
X227707228Y-58139448D02*
G01*
X227852117Y-58199463D01*
X227982515Y-58286592D01*
X228093408Y-58397485D01*
X228180537Y-58527883D01*
X228240552Y-58672772D01*
X228271148Y-58826586D01*
X228271148Y-58983414D01*
X228240552Y-59137228D01*
X228180537Y-59282117D01*
X228093408Y-59412515D01*
X227982515Y-59523408D01*
X227852117Y-59610537D01*
X227707228Y-59670552D01*
X227553414Y-59701148D01*
X227396586Y-59701148D01*
X227242772Y-59670552D01*
X227097883Y-59610537D01*
X226967485Y-59523408D01*
X226856592Y-59412515D01*
X226769463Y-59282117D01*
X226709448Y-59137228D01*
X226678852Y-58983414D01*
X226678852Y-58826586D01*
X226709448Y-58672772D01*
X226769463Y-58527883D01*
X226856592Y-58397485D01*
X226967485Y-58286592D01*
X227097883Y-58199463D01*
X227242772Y-58139448D01*
X227396586Y-58108852D01*
X227553414Y-58108852D01*
X227707228Y-58139448D01*
G37*
G36*
X224867228Y-56754448D02*
G01*
X225012117Y-56814463D01*
X225142515Y-56901592D01*
X225253408Y-57012485D01*
X225340537Y-57142883D01*
X225400552Y-57287772D01*
X225431148Y-57441586D01*
X225431148Y-57598414D01*
X225400552Y-57752228D01*
X225340537Y-57897117D01*
X225253408Y-58027515D01*
X225142515Y-58138408D01*
X225012117Y-58225537D01*
X224867228Y-58285552D01*
X224713414Y-58316148D01*
X224556586Y-58316148D01*
X224402772Y-58285552D01*
X224257883Y-58225537D01*
X224127485Y-58138408D01*
X224016592Y-58027515D01*
X223929463Y-57897117D01*
X223869448Y-57752228D01*
X223838852Y-57598414D01*
X223838852Y-57441586D01*
X223869448Y-57287772D01*
X223929463Y-57142883D01*
X224016592Y-57012485D01*
X224127485Y-56901592D01*
X224257883Y-56814463D01*
X224402772Y-56754448D01*
X224556586Y-56723852D01*
X224713414Y-56723852D01*
X224867228Y-56754448D01*
G37*
G36*
X189546742Y-56336601D02*
G01*
X189700687Y-56400367D01*
X189839234Y-56492941D01*
X189957059Y-56610766D01*
X190049633Y-56749313D01*
X190113399Y-56903258D01*
X190145907Y-57066685D01*
X190145907Y-57233315D01*
X190113399Y-57396742D01*
X190049633Y-57550687D01*
X189957059Y-57689234D01*
X189839234Y-57807059D01*
X189700687Y-57899633D01*
X189546742Y-57963399D01*
X189383315Y-57995907D01*
X189216685Y-57995907D01*
X189053258Y-57963399D01*
X188899313Y-57899633D01*
X188760766Y-57807059D01*
X188642941Y-57689234D01*
X188550367Y-57550687D01*
X188486601Y-57396742D01*
X188454093Y-57233315D01*
X188454093Y-57066685D01*
X188486601Y-56903258D01*
X188550367Y-56749313D01*
X188642941Y-56610766D01*
X188760766Y-56492941D01*
X188899313Y-56400367D01*
X189053258Y-56336601D01*
X189216685Y-56304093D01*
X189383315Y-56304093D01*
X189546742Y-56336601D01*
G37*
G36*
X195110000Y-57315000D02*
G01*
X193510000Y-57315000D01*
X193510000Y-55715000D01*
X195110000Y-55715000D01*
X195110000Y-57315000D01*
G37*
G36*
X198920000Y-57315000D02*
G01*
X197320000Y-57315000D01*
X197320000Y-55715000D01*
X198920000Y-55715000D01*
X198920000Y-57315000D01*
G37*
G36*
X227707228Y-55369448D02*
G01*
X227852117Y-55429463D01*
X227982515Y-55516592D01*
X228093408Y-55627485D01*
X228180537Y-55757883D01*
X228240552Y-55902772D01*
X228271148Y-56056586D01*
X228271148Y-56213414D01*
X228240552Y-56367228D01*
X228180537Y-56512117D01*
X228093408Y-56642515D01*
X227982515Y-56753408D01*
X227852117Y-56840537D01*
X227707228Y-56900552D01*
X227553414Y-56931148D01*
X227396586Y-56931148D01*
X227242772Y-56900552D01*
X227097883Y-56840537D01*
X226967485Y-56753408D01*
X226856592Y-56642515D01*
X226769463Y-56512117D01*
X226709448Y-56367228D01*
X226678852Y-56213414D01*
X226678852Y-56056586D01*
X226709448Y-55902772D01*
X226769463Y-55757883D01*
X226856592Y-55627485D01*
X226967485Y-55516592D01*
X227097883Y-55429463D01*
X227242772Y-55369448D01*
X227396586Y-55338852D01*
X227553414Y-55338852D01*
X227707228Y-55369448D01*
G37*
G36*
X224867228Y-53984448D02*
G01*
X225012117Y-54044463D01*
X225142515Y-54131592D01*
X225253408Y-54242485D01*
X225340537Y-54372883D01*
X225400552Y-54517772D01*
X225431148Y-54671586D01*
X225431148Y-54828414D01*
X225400552Y-54982228D01*
X225340537Y-55127117D01*
X225253408Y-55257515D01*
X225142515Y-55368408D01*
X225012117Y-55455537D01*
X224867228Y-55515552D01*
X224713414Y-55546148D01*
X224556586Y-55546148D01*
X224402772Y-55515552D01*
X224257883Y-55455537D01*
X224127485Y-55368408D01*
X224016592Y-55257515D01*
X223929463Y-55127117D01*
X223869448Y-54982228D01*
X223838852Y-54828414D01*
X223838852Y-54671586D01*
X223869448Y-54517772D01*
X223929463Y-54372883D01*
X224016592Y-54242485D01*
X224127485Y-54131592D01*
X224257883Y-54044463D01*
X224402772Y-53984448D01*
X224556586Y-53953852D01*
X224713414Y-53953852D01*
X224867228Y-53984448D01*
G37*
G36*
X189546742Y-53796601D02*
G01*
X189700687Y-53860367D01*
X189839234Y-53952941D01*
X189957059Y-54070766D01*
X190049633Y-54209313D01*
X190113399Y-54363258D01*
X190145907Y-54526685D01*
X190145907Y-54693315D01*
X190113399Y-54856742D01*
X190049633Y-55010687D01*
X189957059Y-55149234D01*
X189839234Y-55267059D01*
X189700687Y-55359633D01*
X189546742Y-55423399D01*
X189383315Y-55455907D01*
X189216685Y-55455907D01*
X189053258Y-55423399D01*
X188899313Y-55359633D01*
X188760766Y-55267059D01*
X188642941Y-55149234D01*
X188550367Y-55010687D01*
X188486601Y-54856742D01*
X188454093Y-54693315D01*
X188454093Y-54526685D01*
X188486601Y-54363258D01*
X188550367Y-54209313D01*
X188642941Y-54070766D01*
X188760766Y-53952941D01*
X188899313Y-53860367D01*
X189053258Y-53796601D01*
X189216685Y-53764093D01*
X189383315Y-53764093D01*
X189546742Y-53796601D01*
G37*
G36*
X227707228Y-52599448D02*
G01*
X227852117Y-52659463D01*
X227982515Y-52746592D01*
X228093408Y-52857485D01*
X228180537Y-52987883D01*
X228240552Y-53132772D01*
X228271148Y-53286586D01*
X228271148Y-53443414D01*
X228240552Y-53597228D01*
X228180537Y-53742117D01*
X228093408Y-53872515D01*
X227982515Y-53983408D01*
X227852117Y-54070537D01*
X227707228Y-54130552D01*
X227553414Y-54161148D01*
X227396586Y-54161148D01*
X227242772Y-54130552D01*
X227097883Y-54070537D01*
X226967485Y-53983408D01*
X226856592Y-53872515D01*
X226769463Y-53742117D01*
X226709448Y-53597228D01*
X226678852Y-53443414D01*
X226678852Y-53286586D01*
X226709448Y-53132772D01*
X226769463Y-52987883D01*
X226856592Y-52857485D01*
X226967485Y-52746592D01*
X227097883Y-52659463D01*
X227242772Y-52599448D01*
X227396586Y-52568852D01*
X227553414Y-52568852D01*
X227707228Y-52599448D01*
G37*
G36*
X189546742Y-51256601D02*
G01*
X189700687Y-51320367D01*
X189839234Y-51412941D01*
X189957059Y-51530766D01*
X190049633Y-51669313D01*
X190113399Y-51823258D01*
X190145907Y-51986685D01*
X190145907Y-52153315D01*
X190113399Y-52316742D01*
X190049633Y-52470687D01*
X189957059Y-52609234D01*
X189839234Y-52727059D01*
X189700687Y-52819633D01*
X189546742Y-52883399D01*
X189383315Y-52915907D01*
X189216685Y-52915907D01*
X189053258Y-52883399D01*
X188899313Y-52819633D01*
X188760766Y-52727059D01*
X188642941Y-52609234D01*
X188550367Y-52470687D01*
X188486601Y-52316742D01*
X188454093Y-52153315D01*
X188454093Y-51986685D01*
X188486601Y-51823258D01*
X188550367Y-51669313D01*
X188642941Y-51530766D01*
X188760766Y-51412941D01*
X188899313Y-51320367D01*
X189053258Y-51256601D01*
X189216685Y-51224093D01*
X189383315Y-51224093D01*
X189546742Y-51256601D01*
G37*
G36*
X225435000Y-52780000D02*
G01*
X223835000Y-52780000D01*
X223835000Y-51180000D01*
X225435000Y-51180000D01*
X225435000Y-52780000D01*
G37*
G36*
X195745000Y-52235000D02*
G01*
X194145000Y-52235000D01*
X194145000Y-50635000D01*
X195745000Y-50635000D01*
X195745000Y-52235000D01*
G37*
G36*
X207877228Y-50669448D02*
G01*
X208022117Y-50729463D01*
X208152515Y-50816592D01*
X208263408Y-50927485D01*
X208350537Y-51057883D01*
X208410552Y-51202772D01*
X208441148Y-51356586D01*
X208441148Y-51513414D01*
X208410552Y-51667228D01*
X208350537Y-51812117D01*
X208263408Y-51942515D01*
X208152515Y-52053408D01*
X208022117Y-52140537D01*
X207877228Y-52200552D01*
X207723414Y-52231148D01*
X207566586Y-52231148D01*
X207412772Y-52200552D01*
X207267883Y-52140537D01*
X207137485Y-52053408D01*
X207026592Y-51942515D01*
X206939463Y-51812117D01*
X206879448Y-51667228D01*
X206848852Y-51513414D01*
X206848852Y-51356586D01*
X206879448Y-51202772D01*
X206939463Y-51057883D01*
X207026592Y-50927485D01*
X207137485Y-50816592D01*
X207267883Y-50729463D01*
X207412772Y-50669448D01*
X207566586Y-50638852D01*
X207723414Y-50638852D01*
X207877228Y-50669448D01*
G37*
G36*
X210417228Y-50669448D02*
G01*
X210562117Y-50729463D01*
X210692515Y-50816592D01*
X210803408Y-50927485D01*
X210890537Y-51057883D01*
X210950552Y-51202772D01*
X210981148Y-51356586D01*
X210981148Y-51513414D01*
X210950552Y-51667228D01*
X210890537Y-51812117D01*
X210803408Y-51942515D01*
X210692515Y-52053408D01*
X210562117Y-52140537D01*
X210417228Y-52200552D01*
X210263414Y-52231148D01*
X210106586Y-52231148D01*
X209952772Y-52200552D01*
X209807883Y-52140537D01*
X209677485Y-52053408D01*
X209566592Y-51942515D01*
X209479463Y-51812117D01*
X209419448Y-51667228D01*
X209388852Y-51513414D01*
X209388852Y-51356586D01*
X209419448Y-51202772D01*
X209479463Y-51057883D01*
X209566592Y-50927485D01*
X209677485Y-50816592D01*
X209807883Y-50729463D01*
X209952772Y-50669448D01*
X210106586Y-50638852D01*
X210263414Y-50638852D01*
X210417228Y-50669448D01*
G37*
G36*
X220577228Y-50669448D02*
G01*
X220722117Y-50729463D01*
X220852515Y-50816592D01*
X220963408Y-50927485D01*
X221050537Y-51057883D01*
X221110552Y-51202772D01*
X221141148Y-51356586D01*
X221141148Y-51513414D01*
X221110552Y-51667228D01*
X221050537Y-51812117D01*
X220963408Y-51942515D01*
X220852515Y-52053408D01*
X220722117Y-52140537D01*
X220577228Y-52200552D01*
X220423414Y-52231148D01*
X220266586Y-52231148D01*
X220112772Y-52200552D01*
X219967883Y-52140537D01*
X219837485Y-52053408D01*
X219726592Y-51942515D01*
X219639463Y-51812117D01*
X219579448Y-51667228D01*
X219548852Y-51513414D01*
X219548852Y-51356586D01*
X219579448Y-51202772D01*
X219639463Y-51057883D01*
X219726592Y-50927485D01*
X219837485Y-50816592D01*
X219967883Y-50729463D01*
X220112772Y-50669448D01*
X220266586Y-50638852D01*
X220423414Y-50638852D01*
X220577228Y-50669448D01*
G37*
G36*
X226445181Y-43058429D02*
G01*
X226697879Y-43126140D01*
X226939577Y-43226255D01*
X227166140Y-43357061D01*
X227373692Y-43516320D01*
X227558680Y-43701308D01*
X227717939Y-43908860D01*
X227848745Y-44135423D01*
X227948860Y-44377121D01*
X228016571Y-44629819D01*
X228050718Y-44889194D01*
X228050718Y-45150806D01*
X228016571Y-45410181D01*
X227948860Y-45662879D01*
X227848745Y-45904577D01*
X227717939Y-46131140D01*
X227558680Y-46338692D01*
X227373692Y-46523680D01*
X227166140Y-46682939D01*
X226939577Y-46813745D01*
X226697879Y-46913860D01*
X226445181Y-46981571D01*
X226185806Y-47015718D01*
X225924194Y-47015718D01*
X225664819Y-46981571D01*
X225412121Y-46913860D01*
X225170423Y-46813745D01*
X224943860Y-46682939D01*
X224736308Y-46523680D01*
X224551320Y-46338692D01*
X224392061Y-46131140D01*
X224261255Y-45904577D01*
X224161140Y-45662879D01*
X224093429Y-45410181D01*
X224059282Y-45150806D01*
X224059282Y-44889194D01*
X224093429Y-44629819D01*
X224161140Y-44377121D01*
X224261255Y-44135423D01*
X224392061Y-43908860D01*
X224551320Y-43701308D01*
X224736308Y-43516320D01*
X224943860Y-43357061D01*
X225170423Y-43226255D01*
X225412121Y-43126140D01*
X225664819Y-43058429D01*
X225924194Y-43024282D01*
X226185806Y-43024282D01*
X226445181Y-43058429D01*
G37*
M02*
