%TF.GenerationSoftware,KiCad,Pcbnew,9.0.1*%
%TF.CreationDate,2025-05-09T12:09:10-04:00*%
%TF.ProjectId,Meterbus-interface,4d657465-7262-4757-932d-696e74657266,rev?*%
%TF.SameCoordinates,Original*%
%TF.FileFunction,Copper,L1,Top*%
%TF.FilePolarity,Positive*%
%FSLAX46Y46*%
G04 Gerber Fmt 4.6, Leading zero omitted, Abs format (unit mm)*
G04 Created by KiCad (PCBNEW 9.0.1) date 2025-05-09 12:09:10*
%MOMM*%
%LPD*%
G01*
G04 APERTURE LIST*
G04 Aperture macros list*
%AMRoundRect*
0 Rectangle with rounded corners*
0 $1 Rounding radius*
0 $2 $3 $4 $5 $6 $7 $8 $9 X,Y pos of 4 corners*
0 Add a 4 corners polygon primitive as box body*
4,1,4,$2,$3,$4,$5,$6,$7,$8,$9,$2,$3,0*
0 Add four circle primitives for the rounded corners*
1,1,$1+$1,$2,$3*
1,1,$1+$1,$4,$5*
1,1,$1+$1,$6,$7*
1,1,$1+$1,$8,$9*
0 Add four rect primitives between the rounded corners*
20,1,$1+$1,$2,$3,$4,$5,0*
20,1,$1+$1,$4,$5,$6,$7,0*
20,1,$1+$1,$6,$7,$8,$9,0*
20,1,$1+$1,$8,$9,$2,$3,0*%
G04 Aperture macros list end*
%TA.AperFunction,ComponentPad*%
%ADD10R,1.700000X1.700000*%
%TD*%
%TA.AperFunction,ComponentPad*%
%ADD11C,1.700000*%
%TD*%
%TA.AperFunction,ComponentPad*%
%ADD12C,4.000000*%
%TD*%
%TA.AperFunction,ComponentPad*%
%ADD13R,1.600000X1.600000*%
%TD*%
%TA.AperFunction,ComponentPad*%
%ADD14C,1.600000*%
%TD*%
%TA.AperFunction,SMDPad,CuDef*%
%ADD15RoundRect,0.200000X-0.200000X-0.275000X0.200000X-0.275000X0.200000X0.275000X-0.200000X0.275000X0*%
%TD*%
%TA.AperFunction,SMDPad,CuDef*%
%ADD16RoundRect,0.150000X0.587500X0.150000X-0.587500X0.150000X-0.587500X-0.150000X0.587500X-0.150000X0*%
%TD*%
%TA.AperFunction,Conductor*%
%ADD17C,0.254000*%
%TD*%
G04 APERTURE END LIST*
D10*
%TO.P,J5,1,Pin_1*%
%TO.N,/GND*%
X189300000Y-63100000D03*
D11*
%TO.P,J5,2,Pin_2*%
%TO.N,unconnected-(J5-Pin_2-Pad2)*%
X189300000Y-60560000D03*
%TO.P,J5,3,Pin_3*%
%TO.N,Net-(J5-Pin_3)*%
X189300000Y-58020000D03*
%TO.P,J5,4,Pin_4*%
%TO.N,Net-(J5-Pin_4)*%
X189300000Y-55480000D03*
%TO.P,J5,5,Pin_5*%
%TO.N,Net-(J5-Pin_5)*%
X189300000Y-52940000D03*
%TO.P,J5,6,Pin_6*%
%TO.N,unconnected-(J5-Pin_6-Pad6)*%
X189300000Y-50400000D03*
%TD*%
D12*
%TO.P,J4,0*%
%TO.N,N/C*%
X226055000Y-70020000D03*
X226055000Y-45020000D03*
D13*
%TO.P,J4,1,1*%
%TO.N,Net-(J4-Pad1)*%
X224635000Y-51980000D03*
D14*
%TO.P,J4,2,2*%
%TO.N,unconnected-(J4-Pad2)*%
X224635000Y-54750000D03*
%TO.P,J4,3,3*%
%TO.N,unconnected-(J4-Pad3)*%
X224635000Y-57520000D03*
%TO.P,J4,4,4*%
%TO.N,unconnected-(J4-Pad4)*%
X224635000Y-60290000D03*
%TO.P,J4,5,5*%
%TO.N,/GND*%
X224635000Y-63060000D03*
%TO.P,J4,6,6*%
%TO.N,unconnected-(J4-Pad6)*%
X227475000Y-53365000D03*
%TO.P,J4,7,7*%
%TO.N,unconnected-(J4-Pad7)*%
X227475000Y-56135000D03*
%TO.P,J4,8,8*%
%TO.N,unconnected-(J4-Pad8)*%
X227475000Y-58905000D03*
%TO.P,J4,9,9*%
%TO.N,unconnected-(J4-Pad9)*%
X227475000Y-61675000D03*
%TD*%
D15*
%TO.P,R1,1*%
%TO.N,Net-(D1-Pad1)*%
X214250000Y-52070000D03*
%TO.P,R1,2*%
%TO.N,Net-(J4-Pad1)*%
X215900000Y-52070000D03*
%TD*%
D16*
%TO.P,D2,1*%
%TO.N,Net-(J5-Pin_5)*%
X201277500Y-60307500D03*
%TO.P,D2,2*%
%TO.N,Net-(J5-Pin_4)*%
X201277500Y-58407500D03*
%TO.P,D2,3*%
%TO.N,Net-(J5-Pin_3)*%
X199402500Y-59357500D03*
%TD*%
D15*
%TO.P,R2,1*%
%TO.N,Net-(J5-Pin_5)*%
X214250000Y-58420000D03*
%TO.P,R2,2*%
%TO.N,Net-(J4-Pad1)*%
X215900000Y-58420000D03*
%TD*%
D16*
%TO.P,D1,1*%
%TO.N,Net-(D1-Pad1)*%
X203200000Y-52700000D03*
%TO.P,D1,2*%
%TO.N,unconnected-(D1-Pad2)*%
X203200000Y-50800000D03*
%TO.P,D1,3*%
%TO.N,Net-(J5-Pin_4)*%
X201325000Y-51750000D03*
%TD*%
D17*
%TO.N,Net-(J5-Pin_3)*%
X189340000Y-58060000D02*
X195220000Y-58060000D01*
X195220000Y-58060000D02*
X196517500Y-59357500D01*
X196517500Y-59357500D02*
X199402500Y-59357500D01*
X189300000Y-58020000D02*
X189340000Y-58060000D01*
%TO.N,Net-(J5-Pin_5)*%
X201342500Y-59942500D02*
X201342500Y-60242500D01*
X214250000Y-58420000D02*
X203165000Y-58420000D01*
X203165000Y-58420000D02*
X201277500Y-60307500D01*
X187700000Y-56300000D02*
X188200000Y-56800000D01*
X201342500Y-60242500D02*
X201277500Y-60307500D01*
X187700000Y-54540000D02*
X187700000Y-56300000D01*
X198200000Y-56800000D02*
X201342500Y-59942500D01*
X188200000Y-56800000D02*
X198200000Y-56800000D01*
X189300000Y-52940000D02*
X187700000Y-54540000D01*
%TO.N,Net-(J4-Pad1)*%
X215900000Y-52070000D02*
X224545000Y-52070000D01*
X224545000Y-52070000D02*
X224635000Y-51980000D01*
X215900000Y-52070000D02*
X215900000Y-58420000D01*
%TO.N,Net-(J5-Pin_4)*%
X200660000Y-57150000D02*
X199030000Y-55520000D01*
X201325000Y-58360000D02*
X201277500Y-58407500D01*
X201325000Y-51750000D02*
X201325000Y-57150000D01*
X201325000Y-57150000D02*
X200660000Y-57150000D01*
X201325000Y-57150000D02*
X201325000Y-58360000D01*
X189340000Y-55520000D02*
X189300000Y-55480000D01*
X199030000Y-55520000D02*
X189340000Y-55520000D01*
%TO.N,Net-(D1-Pad1)*%
X203830000Y-52070000D02*
X203200000Y-52700000D01*
X214250000Y-52070000D02*
X203830000Y-52070000D01*
%TO.N,/GND*%
X224555000Y-63140000D02*
X224635000Y-63060000D01*
X189300000Y-63100000D02*
X189340000Y-63140000D01*
%TD*%
M02*
