%TF.GenerationSoftware,KiCad,Pcbnew,9.0.1*%
%TF.CreationDate,2025-05-09T12:09:10-04:00*%
%TF.ProjectId,Meterbus-interface,4d657465-7262-4757-932d-696e74657266,rev?*%
%TF.SameCoordinates,Original*%
%TF.FileFunction,Soldermask,Bot*%
%TF.FilePolarity,Negative*%
%FSLAX46Y46*%
G04 Gerber Fmt 4.6, Leading zero omitted, Abs format (unit mm)*
G04 Created by KiCad (PCBNEW 9.0.1) date 2025-05-09 12:09:10*
%MOMM*%
%LPD*%
G01*
G04 APERTURE LIST*
G04 APERTURE END LIST*
G36*
X226445181Y-68058429D02*
G01*
X226697879Y-68126140D01*
X226939577Y-68226255D01*
X227166140Y-68357061D01*
X227373692Y-68516320D01*
X227558680Y-68701308D01*
X227717939Y-68908860D01*
X227848745Y-69135423D01*
X227948860Y-69377121D01*
X228016571Y-69629819D01*
X228050718Y-69889194D01*
X228050718Y-70150806D01*
X228016571Y-70410181D01*
X227948860Y-70662879D01*
X227848745Y-70904577D01*
X227717939Y-71131140D01*
X227558680Y-71338692D01*
X227373692Y-71523680D01*
X227166140Y-71682939D01*
X226939577Y-71813745D01*
X226697879Y-71913860D01*
X226445181Y-71981571D01*
X226185806Y-72015718D01*
X225924194Y-72015718D01*
X225664819Y-71981571D01*
X225412121Y-71913860D01*
X225170423Y-71813745D01*
X224943860Y-71682939D01*
X224736308Y-71523680D01*
X224551320Y-71338692D01*
X224392061Y-71131140D01*
X224261255Y-70904577D01*
X224161140Y-70662879D01*
X224093429Y-70410181D01*
X224059282Y-70150806D01*
X224059282Y-69889194D01*
X224093429Y-69629819D01*
X224161140Y-69377121D01*
X224261255Y-69135423D01*
X224392061Y-68908860D01*
X224551320Y-68701308D01*
X224736308Y-68516320D01*
X224943860Y-68357061D01*
X225170423Y-68226255D01*
X225412121Y-68126140D01*
X225664819Y-68058429D01*
X225924194Y-68024282D01*
X226185806Y-68024282D01*
X226445181Y-68058429D01*
G37*
G36*
X190150000Y-63950000D02*
G01*
X188450000Y-63950000D01*
X188450000Y-62250000D01*
X190150000Y-62250000D01*
X190150000Y-63950000D01*
G37*
G36*
X224867228Y-62294448D02*
G01*
X225012117Y-62354463D01*
X225142515Y-62441592D01*
X225253408Y-62552485D01*
X225340537Y-62682883D01*
X225400552Y-62827772D01*
X225431148Y-62981586D01*
X225431148Y-63138414D01*
X225400552Y-63292228D01*
X225340537Y-63437117D01*
X225253408Y-63567515D01*
X225142515Y-63678408D01*
X225012117Y-63765537D01*
X224867228Y-63825552D01*
X224713414Y-63856148D01*
X224556586Y-63856148D01*
X224402772Y-63825552D01*
X224257883Y-63765537D01*
X224127485Y-63678408D01*
X224016592Y-63567515D01*
X223929463Y-63437117D01*
X223869448Y-63292228D01*
X223838852Y-63138414D01*
X223838852Y-62981586D01*
X223869448Y-62827772D01*
X223929463Y-62682883D01*
X224016592Y-62552485D01*
X224127485Y-62441592D01*
X224257883Y-62354463D01*
X224402772Y-62294448D01*
X224556586Y-62263852D01*
X224713414Y-62263852D01*
X224867228Y-62294448D01*
G37*
G36*
X227707228Y-60909448D02*
G01*
X227852117Y-60969463D01*
X227982515Y-61056592D01*
X228093408Y-61167485D01*
X228180537Y-61297883D01*
X228240552Y-61442772D01*
X228271148Y-61596586D01*
X228271148Y-61753414D01*
X228240552Y-61907228D01*
X228180537Y-62052117D01*
X228093408Y-62182515D01*
X227982515Y-62293408D01*
X227852117Y-62380537D01*
X227707228Y-62440552D01*
X227553414Y-62471148D01*
X227396586Y-62471148D01*
X227242772Y-62440552D01*
X227097883Y-62380537D01*
X226967485Y-62293408D01*
X226856592Y-62182515D01*
X226769463Y-62052117D01*
X226709448Y-61907228D01*
X226678852Y-61753414D01*
X226678852Y-61596586D01*
X226709448Y-61442772D01*
X226769463Y-61297883D01*
X226856592Y-61167485D01*
X226967485Y-61056592D01*
X227097883Y-60969463D01*
X227242772Y-60909448D01*
X227396586Y-60878852D01*
X227553414Y-60878852D01*
X227707228Y-60909448D01*
G37*
G36*
X189546742Y-59746601D02*
G01*
X189700687Y-59810367D01*
X189839234Y-59902941D01*
X189957059Y-60020766D01*
X190049633Y-60159313D01*
X190113399Y-60313258D01*
X190145907Y-60476685D01*
X190145907Y-60643315D01*
X190113399Y-60806742D01*
X190049633Y-60960687D01*
X189957059Y-61099234D01*
X189839234Y-61217059D01*
X189700687Y-61309633D01*
X189546742Y-61373399D01*
X189383315Y-61405907D01*
X189216685Y-61405907D01*
X189053258Y-61373399D01*
X188899313Y-61309633D01*
X188760766Y-61217059D01*
X188642941Y-61099234D01*
X188550367Y-60960687D01*
X188486601Y-60806742D01*
X188454093Y-60643315D01*
X188454093Y-60476685D01*
X188486601Y-60313258D01*
X188550367Y-60159313D01*
X188642941Y-60020766D01*
X188760766Y-59902941D01*
X188899313Y-59810367D01*
X189053258Y-59746601D01*
X189216685Y-59714093D01*
X189383315Y-59714093D01*
X189546742Y-59746601D01*
G37*
G36*
X224867228Y-59524448D02*
G01*
X225012117Y-59584463D01*
X225142515Y-59671592D01*
X225253408Y-59782485D01*
X225340537Y-59912883D01*
X225400552Y-60057772D01*
X225431148Y-60211586D01*
X225431148Y-60368414D01*
X225400552Y-60522228D01*
X225340537Y-60667117D01*
X225253408Y-60797515D01*
X225142515Y-60908408D01*
X225012117Y-60995537D01*
X224867228Y-61055552D01*
X224713414Y-61086148D01*
X224556586Y-61086148D01*
X224402772Y-61055552D01*
X224257883Y-60995537D01*
X224127485Y-60908408D01*
X224016592Y-60797515D01*
X223929463Y-60667117D01*
X223869448Y-60522228D01*
X223838852Y-60368414D01*
X223838852Y-60211586D01*
X223869448Y-60057772D01*
X223929463Y-59912883D01*
X224016592Y-59782485D01*
X224127485Y-59671592D01*
X224257883Y-59584463D01*
X224402772Y-59524448D01*
X224556586Y-59493852D01*
X224713414Y-59493852D01*
X224867228Y-59524448D01*
G37*
G36*
X227707228Y-58139448D02*
G01*
X227852117Y-58199463D01*
X227982515Y-58286592D01*
X228093408Y-58397485D01*
X228180537Y-58527883D01*
X228240552Y-58672772D01*
X228271148Y-58826586D01*
X228271148Y-58983414D01*
X228240552Y-59137228D01*
X228180537Y-59282117D01*
X228093408Y-59412515D01*
X227982515Y-59523408D01*
X227852117Y-59610537D01*
X227707228Y-59670552D01*
X227553414Y-59701148D01*
X227396586Y-59701148D01*
X227242772Y-59670552D01*
X227097883Y-59610537D01*
X226967485Y-59523408D01*
X226856592Y-59412515D01*
X226769463Y-59282117D01*
X226709448Y-59137228D01*
X226678852Y-58983414D01*
X226678852Y-58826586D01*
X226709448Y-58672772D01*
X226769463Y-58527883D01*
X226856592Y-58397485D01*
X226967485Y-58286592D01*
X227097883Y-58199463D01*
X227242772Y-58139448D01*
X227396586Y-58108852D01*
X227553414Y-58108852D01*
X227707228Y-58139448D01*
G37*
G36*
X189546742Y-57206601D02*
G01*
X189700687Y-57270367D01*
X189839234Y-57362941D01*
X189957059Y-57480766D01*
X190049633Y-57619313D01*
X190113399Y-57773258D01*
X190145907Y-57936685D01*
X190145907Y-58103315D01*
X190113399Y-58266742D01*
X190049633Y-58420687D01*
X189957059Y-58559234D01*
X189839234Y-58677059D01*
X189700687Y-58769633D01*
X189546742Y-58833399D01*
X189383315Y-58865907D01*
X189216685Y-58865907D01*
X189053258Y-58833399D01*
X188899313Y-58769633D01*
X188760766Y-58677059D01*
X188642941Y-58559234D01*
X188550367Y-58420687D01*
X188486601Y-58266742D01*
X188454093Y-58103315D01*
X188454093Y-57936685D01*
X188486601Y-57773258D01*
X188550367Y-57619313D01*
X188642941Y-57480766D01*
X188760766Y-57362941D01*
X188899313Y-57270367D01*
X189053258Y-57206601D01*
X189216685Y-57174093D01*
X189383315Y-57174093D01*
X189546742Y-57206601D01*
G37*
G36*
X224867228Y-56754448D02*
G01*
X225012117Y-56814463D01*
X225142515Y-56901592D01*
X225253408Y-57012485D01*
X225340537Y-57142883D01*
X225400552Y-57287772D01*
X225431148Y-57441586D01*
X225431148Y-57598414D01*
X225400552Y-57752228D01*
X225340537Y-57897117D01*
X225253408Y-58027515D01*
X225142515Y-58138408D01*
X225012117Y-58225537D01*
X224867228Y-58285552D01*
X224713414Y-58316148D01*
X224556586Y-58316148D01*
X224402772Y-58285552D01*
X224257883Y-58225537D01*
X224127485Y-58138408D01*
X224016592Y-58027515D01*
X223929463Y-57897117D01*
X223869448Y-57752228D01*
X223838852Y-57598414D01*
X223838852Y-57441586D01*
X223869448Y-57287772D01*
X223929463Y-57142883D01*
X224016592Y-57012485D01*
X224127485Y-56901592D01*
X224257883Y-56814463D01*
X224402772Y-56754448D01*
X224556586Y-56723852D01*
X224713414Y-56723852D01*
X224867228Y-56754448D01*
G37*
G36*
X227707228Y-55369448D02*
G01*
X227852117Y-55429463D01*
X227982515Y-55516592D01*
X228093408Y-55627485D01*
X228180537Y-55757883D01*
X228240552Y-55902772D01*
X228271148Y-56056586D01*
X228271148Y-56213414D01*
X228240552Y-56367228D01*
X228180537Y-56512117D01*
X228093408Y-56642515D01*
X227982515Y-56753408D01*
X227852117Y-56840537D01*
X227707228Y-56900552D01*
X227553414Y-56931148D01*
X227396586Y-56931148D01*
X227242772Y-56900552D01*
X227097883Y-56840537D01*
X226967485Y-56753408D01*
X226856592Y-56642515D01*
X226769463Y-56512117D01*
X226709448Y-56367228D01*
X226678852Y-56213414D01*
X226678852Y-56056586D01*
X226709448Y-55902772D01*
X226769463Y-55757883D01*
X226856592Y-55627485D01*
X226967485Y-55516592D01*
X227097883Y-55429463D01*
X227242772Y-55369448D01*
X227396586Y-55338852D01*
X227553414Y-55338852D01*
X227707228Y-55369448D01*
G37*
G36*
X189546742Y-54666601D02*
G01*
X189700687Y-54730367D01*
X189839234Y-54822941D01*
X189957059Y-54940766D01*
X190049633Y-55079313D01*
X190113399Y-55233258D01*
X190145907Y-55396685D01*
X190145907Y-55563315D01*
X190113399Y-55726742D01*
X190049633Y-55880687D01*
X189957059Y-56019234D01*
X189839234Y-56137059D01*
X189700687Y-56229633D01*
X189546742Y-56293399D01*
X189383315Y-56325907D01*
X189216685Y-56325907D01*
X189053258Y-56293399D01*
X188899313Y-56229633D01*
X188760766Y-56137059D01*
X188642941Y-56019234D01*
X188550367Y-55880687D01*
X188486601Y-55726742D01*
X188454093Y-55563315D01*
X188454093Y-55396685D01*
X188486601Y-55233258D01*
X188550367Y-55079313D01*
X188642941Y-54940766D01*
X188760766Y-54822941D01*
X188899313Y-54730367D01*
X189053258Y-54666601D01*
X189216685Y-54634093D01*
X189383315Y-54634093D01*
X189546742Y-54666601D01*
G37*
G36*
X224867228Y-53984448D02*
G01*
X225012117Y-54044463D01*
X225142515Y-54131592D01*
X225253408Y-54242485D01*
X225340537Y-54372883D01*
X225400552Y-54517772D01*
X225431148Y-54671586D01*
X225431148Y-54828414D01*
X225400552Y-54982228D01*
X225340537Y-55127117D01*
X225253408Y-55257515D01*
X225142515Y-55368408D01*
X225012117Y-55455537D01*
X224867228Y-55515552D01*
X224713414Y-55546148D01*
X224556586Y-55546148D01*
X224402772Y-55515552D01*
X224257883Y-55455537D01*
X224127485Y-55368408D01*
X224016592Y-55257515D01*
X223929463Y-55127117D01*
X223869448Y-54982228D01*
X223838852Y-54828414D01*
X223838852Y-54671586D01*
X223869448Y-54517772D01*
X223929463Y-54372883D01*
X224016592Y-54242485D01*
X224127485Y-54131592D01*
X224257883Y-54044463D01*
X224402772Y-53984448D01*
X224556586Y-53953852D01*
X224713414Y-53953852D01*
X224867228Y-53984448D01*
G37*
G36*
X227707228Y-52599448D02*
G01*
X227852117Y-52659463D01*
X227982515Y-52746592D01*
X228093408Y-52857485D01*
X228180537Y-52987883D01*
X228240552Y-53132772D01*
X228271148Y-53286586D01*
X228271148Y-53443414D01*
X228240552Y-53597228D01*
X228180537Y-53742117D01*
X228093408Y-53872515D01*
X227982515Y-53983408D01*
X227852117Y-54070537D01*
X227707228Y-54130552D01*
X227553414Y-54161148D01*
X227396586Y-54161148D01*
X227242772Y-54130552D01*
X227097883Y-54070537D01*
X226967485Y-53983408D01*
X226856592Y-53872515D01*
X226769463Y-53742117D01*
X226709448Y-53597228D01*
X226678852Y-53443414D01*
X226678852Y-53286586D01*
X226709448Y-53132772D01*
X226769463Y-52987883D01*
X226856592Y-52857485D01*
X226967485Y-52746592D01*
X227097883Y-52659463D01*
X227242772Y-52599448D01*
X227396586Y-52568852D01*
X227553414Y-52568852D01*
X227707228Y-52599448D01*
G37*
G36*
X189546742Y-52126601D02*
G01*
X189700687Y-52190367D01*
X189839234Y-52282941D01*
X189957059Y-52400766D01*
X190049633Y-52539313D01*
X190113399Y-52693258D01*
X190145907Y-52856685D01*
X190145907Y-53023315D01*
X190113399Y-53186742D01*
X190049633Y-53340687D01*
X189957059Y-53479234D01*
X189839234Y-53597059D01*
X189700687Y-53689633D01*
X189546742Y-53753399D01*
X189383315Y-53785907D01*
X189216685Y-53785907D01*
X189053258Y-53753399D01*
X188899313Y-53689633D01*
X188760766Y-53597059D01*
X188642941Y-53479234D01*
X188550367Y-53340687D01*
X188486601Y-53186742D01*
X188454093Y-53023315D01*
X188454093Y-52856685D01*
X188486601Y-52693258D01*
X188550367Y-52539313D01*
X188642941Y-52400766D01*
X188760766Y-52282941D01*
X188899313Y-52190367D01*
X189053258Y-52126601D01*
X189216685Y-52094093D01*
X189383315Y-52094093D01*
X189546742Y-52126601D01*
G37*
G36*
X225435000Y-52780000D02*
G01*
X223835000Y-52780000D01*
X223835000Y-51180000D01*
X225435000Y-51180000D01*
X225435000Y-52780000D01*
G37*
G36*
X189546742Y-49586601D02*
G01*
X189700687Y-49650367D01*
X189839234Y-49742941D01*
X189957059Y-49860766D01*
X190049633Y-49999313D01*
X190113399Y-50153258D01*
X190145907Y-50316685D01*
X190145907Y-50483315D01*
X190113399Y-50646742D01*
X190049633Y-50800687D01*
X189957059Y-50939234D01*
X189839234Y-51057059D01*
X189700687Y-51149633D01*
X189546742Y-51213399D01*
X189383315Y-51245907D01*
X189216685Y-51245907D01*
X189053258Y-51213399D01*
X188899313Y-51149633D01*
X188760766Y-51057059D01*
X188642941Y-50939234D01*
X188550367Y-50800687D01*
X188486601Y-50646742D01*
X188454093Y-50483315D01*
X188454093Y-50316685D01*
X188486601Y-50153258D01*
X188550367Y-49999313D01*
X188642941Y-49860766D01*
X188760766Y-49742941D01*
X188899313Y-49650367D01*
X189053258Y-49586601D01*
X189216685Y-49554093D01*
X189383315Y-49554093D01*
X189546742Y-49586601D01*
G37*
G36*
X226445181Y-43058429D02*
G01*
X226697879Y-43126140D01*
X226939577Y-43226255D01*
X227166140Y-43357061D01*
X227373692Y-43516320D01*
X227558680Y-43701308D01*
X227717939Y-43908860D01*
X227848745Y-44135423D01*
X227948860Y-44377121D01*
X228016571Y-44629819D01*
X228050718Y-44889194D01*
X228050718Y-45150806D01*
X228016571Y-45410181D01*
X227948860Y-45662879D01*
X227848745Y-45904577D01*
X227717939Y-46131140D01*
X227558680Y-46338692D01*
X227373692Y-46523680D01*
X227166140Y-46682939D01*
X226939577Y-46813745D01*
X226697879Y-46913860D01*
X226445181Y-46981571D01*
X226185806Y-47015718D01*
X225924194Y-47015718D01*
X225664819Y-46981571D01*
X225412121Y-46913860D01*
X225170423Y-46813745D01*
X224943860Y-46682939D01*
X224736308Y-46523680D01*
X224551320Y-46338692D01*
X224392061Y-46131140D01*
X224261255Y-45904577D01*
X224161140Y-45662879D01*
X224093429Y-45410181D01*
X224059282Y-45150806D01*
X224059282Y-44889194D01*
X224093429Y-44629819D01*
X224161140Y-44377121D01*
X224261255Y-44135423D01*
X224392061Y-43908860D01*
X224551320Y-43701308D01*
X224736308Y-43516320D01*
X224943860Y-43357061D01*
X225170423Y-43226255D01*
X225412121Y-43126140D01*
X225664819Y-43058429D01*
X225924194Y-43024282D01*
X226185806Y-43024282D01*
X226445181Y-43058429D01*
G37*
M02*
