%TF.GenerationSoftware,KiCad,Pcbnew,9.0.1*%
%TF.CreationDate,2025-05-09T12:09:10-04:00*%
%TF.ProjectId,Meterbus-interface,4d657465-7262-4757-932d-696e74657266,rev?*%
%TF.SameCoordinates,Original*%
%TF.FileFunction,Legend,Top*%
%TF.FilePolarity,Positive*%
%FSLAX46Y46*%
G04 Gerber Fmt 4.6, Leading zero omitted, Abs format (unit mm)*
G04 Created by KiCad (PCBNEW 9.0.1) date 2025-05-09 12:09:10*
%MOMM*%
%LPD*%
G01*
G04 APERTURE LIST*
%ADD10C,0.150000*%
%ADD11C,0.120000*%
G04 APERTURE END LIST*
D10*
X184581666Y-64824819D02*
X184581666Y-65539104D01*
X184581666Y-65539104D02*
X184534047Y-65681961D01*
X184534047Y-65681961D02*
X184438809Y-65777200D01*
X184438809Y-65777200D02*
X184295952Y-65824819D01*
X184295952Y-65824819D02*
X184200714Y-65824819D01*
X185534047Y-64824819D02*
X185057857Y-64824819D01*
X185057857Y-64824819D02*
X185010238Y-65301009D01*
X185010238Y-65301009D02*
X185057857Y-65253390D01*
X185057857Y-65253390D02*
X185153095Y-65205771D01*
X185153095Y-65205771D02*
X185391190Y-65205771D01*
X185391190Y-65205771D02*
X185486428Y-65253390D01*
X185486428Y-65253390D02*
X185534047Y-65301009D01*
X185534047Y-65301009D02*
X185581666Y-65396247D01*
X185581666Y-65396247D02*
X185581666Y-65634342D01*
X185581666Y-65634342D02*
X185534047Y-65729580D01*
X185534047Y-65729580D02*
X185486428Y-65777200D01*
X185486428Y-65777200D02*
X185391190Y-65824819D01*
X185391190Y-65824819D02*
X185153095Y-65824819D01*
X185153095Y-65824819D02*
X185057857Y-65777200D01*
X185057857Y-65777200D02*
X185010238Y-65729580D01*
X221289819Y-57853333D02*
X222004104Y-57853333D01*
X222004104Y-57853333D02*
X222146961Y-57900952D01*
X222146961Y-57900952D02*
X222242200Y-57996190D01*
X222242200Y-57996190D02*
X222289819Y-58139047D01*
X222289819Y-58139047D02*
X222289819Y-58234285D01*
X221623152Y-56948571D02*
X222289819Y-56948571D01*
X221242200Y-57186666D02*
X221956485Y-57424761D01*
X221956485Y-57424761D02*
X221956485Y-56805714D01*
X214528333Y-49824819D02*
X214195000Y-49348628D01*
X213956905Y-49824819D02*
X213956905Y-48824819D01*
X213956905Y-48824819D02*
X214337857Y-48824819D01*
X214337857Y-48824819D02*
X214433095Y-48872438D01*
X214433095Y-48872438D02*
X214480714Y-48920057D01*
X214480714Y-48920057D02*
X214528333Y-49015295D01*
X214528333Y-49015295D02*
X214528333Y-49158152D01*
X214528333Y-49158152D02*
X214480714Y-49253390D01*
X214480714Y-49253390D02*
X214433095Y-49301009D01*
X214433095Y-49301009D02*
X214337857Y-49348628D01*
X214337857Y-49348628D02*
X213956905Y-49348628D01*
X215480714Y-49824819D02*
X214909286Y-49824819D01*
X215195000Y-49824819D02*
X215195000Y-48824819D01*
X215195000Y-48824819D02*
X215099762Y-48967676D01*
X215099762Y-48967676D02*
X215004524Y-49062914D01*
X215004524Y-49062914D02*
X214909286Y-49110533D01*
X199601905Y-62212319D02*
X199601905Y-61212319D01*
X199601905Y-61212319D02*
X199840000Y-61212319D01*
X199840000Y-61212319D02*
X199982857Y-61259938D01*
X199982857Y-61259938D02*
X200078095Y-61355176D01*
X200078095Y-61355176D02*
X200125714Y-61450414D01*
X200125714Y-61450414D02*
X200173333Y-61640890D01*
X200173333Y-61640890D02*
X200173333Y-61783747D01*
X200173333Y-61783747D02*
X200125714Y-61974223D01*
X200125714Y-61974223D02*
X200078095Y-62069461D01*
X200078095Y-62069461D02*
X199982857Y-62164700D01*
X199982857Y-62164700D02*
X199840000Y-62212319D01*
X199840000Y-62212319D02*
X199601905Y-62212319D01*
X200554286Y-61307557D02*
X200601905Y-61259938D01*
X200601905Y-61259938D02*
X200697143Y-61212319D01*
X200697143Y-61212319D02*
X200935238Y-61212319D01*
X200935238Y-61212319D02*
X201030476Y-61259938D01*
X201030476Y-61259938D02*
X201078095Y-61307557D01*
X201078095Y-61307557D02*
X201125714Y-61402795D01*
X201125714Y-61402795D02*
X201125714Y-61498033D01*
X201125714Y-61498033D02*
X201078095Y-61640890D01*
X201078095Y-61640890D02*
X200506667Y-62212319D01*
X200506667Y-62212319D02*
X201125714Y-62212319D01*
X214908333Y-57444819D02*
X214575000Y-56968628D01*
X214336905Y-57444819D02*
X214336905Y-56444819D01*
X214336905Y-56444819D02*
X214717857Y-56444819D01*
X214717857Y-56444819D02*
X214813095Y-56492438D01*
X214813095Y-56492438D02*
X214860714Y-56540057D01*
X214860714Y-56540057D02*
X214908333Y-56635295D01*
X214908333Y-56635295D02*
X214908333Y-56778152D01*
X214908333Y-56778152D02*
X214860714Y-56873390D01*
X214860714Y-56873390D02*
X214813095Y-56921009D01*
X214813095Y-56921009D02*
X214717857Y-56968628D01*
X214717857Y-56968628D02*
X214336905Y-56968628D01*
X215289286Y-56540057D02*
X215336905Y-56492438D01*
X215336905Y-56492438D02*
X215432143Y-56444819D01*
X215432143Y-56444819D02*
X215670238Y-56444819D01*
X215670238Y-56444819D02*
X215765476Y-56492438D01*
X215765476Y-56492438D02*
X215813095Y-56540057D01*
X215813095Y-56540057D02*
X215860714Y-56635295D01*
X215860714Y-56635295D02*
X215860714Y-56730533D01*
X215860714Y-56730533D02*
X215813095Y-56873390D01*
X215813095Y-56873390D02*
X215241667Y-57444819D01*
X215241667Y-57444819D02*
X215860714Y-57444819D01*
X201524405Y-54604819D02*
X201524405Y-53604819D01*
X201524405Y-53604819D02*
X201762500Y-53604819D01*
X201762500Y-53604819D02*
X201905357Y-53652438D01*
X201905357Y-53652438D02*
X202000595Y-53747676D01*
X202000595Y-53747676D02*
X202048214Y-53842914D01*
X202048214Y-53842914D02*
X202095833Y-54033390D01*
X202095833Y-54033390D02*
X202095833Y-54176247D01*
X202095833Y-54176247D02*
X202048214Y-54366723D01*
X202048214Y-54366723D02*
X202000595Y-54461961D01*
X202000595Y-54461961D02*
X201905357Y-54557200D01*
X201905357Y-54557200D02*
X201762500Y-54604819D01*
X201762500Y-54604819D02*
X201524405Y-54604819D01*
X203048214Y-54604819D02*
X202476786Y-54604819D01*
X202762500Y-54604819D02*
X202762500Y-53604819D01*
X202762500Y-53604819D02*
X202667262Y-53747676D01*
X202667262Y-53747676D02*
X202572024Y-53842914D01*
X202572024Y-53842914D02*
X202476786Y-53890533D01*
D11*
%TO.C,J5*%
X179150000Y-49970000D02*
X185150000Y-49970000D01*
X179150000Y-50830000D02*
X179150000Y-49970000D01*
X179150000Y-52510000D02*
X185150000Y-52510000D01*
X179150000Y-53370000D02*
X179150000Y-52510000D01*
X179150000Y-55050000D02*
X185150000Y-55050000D01*
X179150000Y-55910000D02*
X179150000Y-55050000D01*
X179150000Y-57590000D02*
X185150000Y-57590000D01*
X179150000Y-58450000D02*
X179150000Y-57590000D01*
X179150000Y-60130000D02*
X185150000Y-60130000D01*
X179150000Y-60990000D02*
X179150000Y-60130000D01*
X185150000Y-49020000D02*
X185150000Y-64480000D01*
X185150000Y-50830000D02*
X179150000Y-50830000D01*
X185150000Y-53370000D02*
X179150000Y-53370000D01*
X185150000Y-55910000D02*
X179150000Y-55910000D01*
X185150000Y-58450000D02*
X179150000Y-58450000D01*
X185150000Y-60990000D02*
X179150000Y-60990000D01*
X185150000Y-64480000D02*
X187910000Y-64480000D01*
X187910000Y-49020000D02*
X185150000Y-49020000D01*
X187910000Y-51670000D02*
X185150000Y-51670000D01*
X187910000Y-54210000D02*
X185150000Y-54210000D01*
X187910000Y-56750000D02*
X185150000Y-56750000D01*
X187910000Y-59290000D02*
X185150000Y-59290000D01*
X187910000Y-61830000D02*
X185150000Y-61830000D01*
X187910000Y-64480000D02*
X187910000Y-49020000D01*
X188140000Y-62670000D02*
X187910000Y-62670000D01*
X188140000Y-63530000D02*
X187910000Y-63530000D01*
X188222642Y-49970000D02*
X187910000Y-49970000D01*
X188222642Y-50830000D02*
X187910000Y-50830000D01*
X188222642Y-52510000D02*
X187910000Y-52510000D01*
X188222642Y-53370000D02*
X187910000Y-53370000D01*
X188222642Y-55050000D02*
X187910000Y-55050000D01*
X188222642Y-55910000D02*
X187910000Y-55910000D01*
X188222642Y-57590000D02*
X187910000Y-57590000D01*
X188222642Y-58450000D02*
X187910000Y-58450000D01*
X188222642Y-60130000D02*
X187910000Y-60130000D01*
X188222642Y-60990000D02*
X187910000Y-60990000D01*
X190570000Y-63100000D02*
X190570000Y-64370000D01*
X190570000Y-64370000D02*
X189300000Y-64370000D01*
X185150000Y-63530000D02*
X179150000Y-63530000D01*
X179150000Y-62670000D01*
X185150000Y-62670000D01*
X185150000Y-63530000D01*
G36*
X185150000Y-63530000D02*
G01*
X179150000Y-63530000D01*
X179150000Y-62670000D01*
X185150000Y-62670000D01*
X185150000Y-63530000D01*
G37*
%TO.C,J4*%
X221880662Y-51730000D02*
X222313675Y-51980000D01*
X221880662Y-52230000D02*
X221880662Y-51730000D01*
X222313675Y-51980000D02*
X221880662Y-52230000D01*
X222775000Y-42035000D02*
X235115000Y-42035000D01*
X222775000Y-73005000D02*
X222775000Y-42035000D01*
X235115000Y-73005000D02*
X222775000Y-73005000D01*
%TO.C,R1*%
X214837742Y-51547500D02*
X215312258Y-51547500D01*
X214837742Y-52592500D02*
X215312258Y-52592500D01*
%TO.C,D2*%
X200340000Y-57797500D02*
X199690000Y-57797500D01*
X200340000Y-57797500D02*
X200990000Y-57797500D01*
X200340000Y-60917500D02*
X199690000Y-60917500D01*
X200340000Y-60917500D02*
X200990000Y-60917500D01*
X201742500Y-61197500D02*
X201262500Y-61197500D01*
X201502500Y-60867500D01*
X201742500Y-61197500D01*
G36*
X201742500Y-61197500D02*
G01*
X201262500Y-61197500D01*
X201502500Y-60867500D01*
X201742500Y-61197500D01*
G37*
%TO.C,R2*%
X214837742Y-57897500D02*
X215312258Y-57897500D01*
X214837742Y-58942500D02*
X215312258Y-58942500D01*
%TO.C,D1*%
X202262500Y-50190000D02*
X201612500Y-50190000D01*
X202262500Y-50190000D02*
X202912500Y-50190000D01*
X202262500Y-53310000D02*
X201612500Y-53310000D01*
X202262500Y-53310000D02*
X202912500Y-53310000D01*
X203665000Y-53590000D02*
X203185000Y-53590000D01*
X203425000Y-53260000D01*
X203665000Y-53590000D01*
G36*
X203665000Y-53590000D02*
G01*
X203185000Y-53590000D01*
X203425000Y-53260000D01*
X203665000Y-53590000D01*
G37*
%TD*%
M02*
