%TF.GenerationSoftware,KiCad,Pcbnew,9.0.1*%
%TF.CreationDate,2025-05-08T11:58:11-04:00*%
%TF.ProjectId,Meterbus-interface,4d657465-7262-4757-932d-696e74657266,rev?*%
%TF.SameCoordinates,Original*%
%TF.FileFunction,Copper,L2,Bot*%
%TF.FilePolarity,Positive*%
%FSLAX46Y46*%
G04 Gerber Fmt 4.6, Leading zero omitted, Abs format (unit mm)*
G04 Created by KiCad (PCBNEW 9.0.1) date 2025-05-08 11:58:11*
%MOMM*%
%LPD*%
G01*
G04 APERTURE LIST*
%TA.AperFunction,ComponentPad*%
%ADD10C,1.600000*%
%TD*%
%TA.AperFunction,ComponentPad*%
%ADD11O,1.600000X1.600000*%
%TD*%
%TA.AperFunction,ComponentPad*%
%ADD12R,1.600000X1.600000*%
%TD*%
%TA.AperFunction,ComponentPad*%
%ADD13R,1.700000X1.700000*%
%TD*%
%TA.AperFunction,ComponentPad*%
%ADD14C,1.700000*%
%TD*%
%TA.AperFunction,ComponentPad*%
%ADD15C,4.000000*%
%TD*%
%TA.AperFunction,Conductor*%
%ADD16C,0.400000*%
%TD*%
G04 APERTURE END LIST*
D10*
%TO.P,R2,1*%
%TO.N,Net-(D3-A)*%
X205740000Y-64135000D03*
D11*
%TO.P,R2,2*%
%TO.N,Net-(J4-Pad1)*%
X215900000Y-64135000D03*
%TD*%
%TO.P,R1,2*%
%TO.N,Net-(J4-Pad1)*%
X220345000Y-51435000D03*
D10*
%TO.P,R1,1*%
%TO.N,Net-(D4-A)*%
X210185000Y-51435000D03*
%TD*%
D11*
%TO.P,D2,2,A*%
%TO.N,Net-(D2-A)*%
X194310000Y-69215000D03*
D12*
%TO.P,D2,1,K*%
%TO.N,Net-(D2-K)*%
X194310000Y-56515000D03*
%TD*%
%TO.P,D4,1,K*%
%TO.N,Net-(D2-A)*%
X194945000Y-51435000D03*
D11*
%TO.P,D4,2,A*%
%TO.N,Net-(D4-A)*%
X207645000Y-51435000D03*
%TD*%
D12*
%TO.P,D3,1,K*%
%TO.N,Net-(D2-K)*%
X198120000Y-56515000D03*
D11*
%TO.P,D3,2,A*%
%TO.N,Net-(D3-A)*%
X198120000Y-69215000D03*
%TD*%
D13*
%TO.P,J5,1,Pin_1*%
%TO.N,/GND*%
X189300000Y-64770000D03*
D14*
%TO.P,J5,2,Pin_2*%
%TO.N,unconnected-(J5-Pin_2-Pad2)*%
X189300000Y-62230000D03*
%TO.P,J5,3,Pin_3*%
%TO.N,Net-(D2-K)*%
X189300000Y-59690000D03*
%TO.P,J5,4,Pin_4*%
%TO.N,Net-(D2-A)*%
X189300000Y-57150000D03*
%TO.P,J5,5,Pin_5*%
%TO.N,Net-(D3-A)*%
X189300000Y-54610000D03*
%TO.P,J5,6,Pin_6*%
%TO.N,unconnected-(J5-Pin_6-Pad6)*%
X189300000Y-52070000D03*
%TD*%
D15*
%TO.P,J4,0*%
%TO.N,N/C*%
X226055000Y-70020000D03*
X226055000Y-45020000D03*
D12*
%TO.P,J4,1,1*%
%TO.N,Net-(J4-Pad1)*%
X224635000Y-51980000D03*
D10*
%TO.P,J4,2,2*%
%TO.N,unconnected-(J4-Pad2)*%
X224635000Y-54750000D03*
%TO.P,J4,3,3*%
%TO.N,unconnected-(J4-Pad3)*%
X224635000Y-57520000D03*
%TO.P,J4,4,4*%
%TO.N,unconnected-(J4-Pad4)*%
X224635000Y-60290000D03*
%TO.P,J4,5,5*%
%TO.N,/GND*%
X224635000Y-63060000D03*
%TO.P,J4,6,6*%
%TO.N,unconnected-(J4-Pad6)*%
X227475000Y-53365000D03*
%TO.P,J4,7,7*%
%TO.N,unconnected-(J4-Pad7)*%
X227475000Y-56135000D03*
%TO.P,J4,8,8*%
%TO.N,unconnected-(J4-Pad8)*%
X227475000Y-58905000D03*
%TO.P,J4,9,9*%
%TO.N,unconnected-(J4-Pad9)*%
X227475000Y-61675000D03*
%TD*%
D16*
%TO.N,Net-(D3-A)*%
X189230000Y-46990000D02*
X186690000Y-49530000D01*
X186690000Y-52000000D02*
X189300000Y-54610000D01*
X186690000Y-49530000D02*
X186690000Y-52000000D01*
X196215000Y-46990000D02*
X189230000Y-46990000D01*
X205740000Y-56515000D02*
X196215000Y-46990000D01*
X205740000Y-64135000D02*
X205740000Y-56515000D01*
%TO.N,/GND*%
X193040000Y-64770000D02*
X189300000Y-64770000D01*
X196215000Y-67945000D02*
X193040000Y-64770000D01*
X215940000Y-71755000D02*
X197485000Y-71755000D01*
X224635000Y-63060000D02*
X215940000Y-71755000D01*
X197485000Y-71755000D02*
X196215000Y-70485000D01*
X196215000Y-70485000D02*
X196215000Y-67945000D01*
%TO.N,Net-(D3-A)*%
X200660000Y-69215000D02*
X198120000Y-69215000D01*
%TO.N,Net-(D2-K)*%
X198120000Y-56515000D02*
X194310000Y-56515000D01*
%TO.N,Net-(D3-A)*%
X205740000Y-64135000D02*
X200660000Y-69215000D01*
%TO.N,Net-(D2-K)*%
X190570000Y-58420000D02*
X189300000Y-59690000D01*
X192405000Y-58420000D02*
X190570000Y-58420000D01*
X194310000Y-56515000D02*
X192405000Y-58420000D01*
%TO.N,Net-(D2-A)*%
X187325000Y-57150000D02*
X189300000Y-57150000D01*
X186690000Y-57785000D02*
X187325000Y-57150000D01*
X193040000Y-72390000D02*
X190500000Y-72390000D01*
X194310000Y-69215000D02*
X194310000Y-71120000D01*
X194310000Y-71120000D02*
X193040000Y-72390000D01*
X190500000Y-72390000D02*
X186690000Y-68580000D01*
X186690000Y-68580000D02*
X186690000Y-57785000D01*
%TO.N,Net-(J4-Pad1)*%
X220890000Y-51980000D02*
X220345000Y-51435000D01*
X224635000Y-51980000D02*
X220890000Y-51980000D01*
%TO.N,Net-(D4-A)*%
X210185000Y-51435000D02*
X207645000Y-51435000D01*
%TO.N,Net-(J4-Pad1)*%
X220345000Y-59690000D02*
X220345000Y-51435000D01*
X215900000Y-64135000D02*
X220345000Y-59690000D01*
%TO.N,Net-(D2-A)*%
X191840000Y-54610000D02*
X189300000Y-57150000D01*
X191840000Y-54540000D02*
X191840000Y-54610000D01*
X194945000Y-51435000D02*
X191840000Y-54540000D01*
%TD*%
M02*
