M48
; DRILL file {KiCad 9.0.1} date 2025-05-08T11:59:06-0400
; FORMAT={-:-/ absolute / metric / decimal}
; #@! TF.CreationDate,2025-05-08T11:59:06-04:00
; #@! TF.GenerationSoftware,Kicad,Pcbnew,9.0.1
; #@! TF.FileFunction,Plated,1,2,PTH
FMAT,2
METRIC
; #@! TA.AperFunction,Plated,PTH,ComponentDrill
T1C0.800
; #@! TA.AperFunction,Plated,PTH,ComponentDrill
T2C1.000
; #@! TA.AperFunction,Plated,PTH,ComponentDrill
T3C3.200
%
G90
G05
T1
X194.31Y-56.515
X194.31Y-69.215
X194.945Y-51.435
X198.12Y-56.515
X198.12Y-69.215
X205.74Y-64.135
X207.645Y-51.435
X210.185Y-51.435
X215.9Y-64.135
X220.345Y-51.435
T2
X189.3Y-52.07
X189.3Y-54.61
X189.3Y-57.15
X189.3Y-59.69
X189.3Y-62.23
X189.3Y-64.77
X224.635Y-51.98
X224.635Y-54.75
X224.635Y-57.52
X224.635Y-60.29
X224.635Y-63.06
X227.475Y-53.365
X227.475Y-56.135
X227.475Y-58.905
X227.475Y-61.675
T3
X226.055Y-45.02
X226.055Y-70.02
M30
